<?xml version="1.0" encoding="UTF-8"?>
<!-- Created with Inkscape (http://www.inkscape.org/) -->
<svg width="1031" height="739" version="1.1" viewBox="0 0 1031 739" xmlns="http://www.w3.org/2000/svg" xmlns:cc="http://creativecommons.org/ns#" xmlns:dc="http://purl.org/dc/elements/1.1/" xmlns:rdf="http://www.w3.org/1999/02/22-rdf-syntax-ns#"><metadata><rdf:RDF><cc:Work rdf:about=""><dc:format>image/svg+xml</dc:format><dc:type rdf:resource="http://purl.org/dc/dcmitype/StillImage"/><dc:title/></cc:Work></rdf:RDF></metadata><g transform="translate(-.9146 -2.7438)"><path d="m0 369.5v-369.5h1031v739h-1031z" fill="#fdfdfd"/><path d="m113.19 700.26-4.3131-.38588.62628-1.6927 19.367-15.883 21.011-1.3584 16.63-8.6274 17.931-12.817 18.681-17.851 1.2708-3.0745 1.2709-3.0745 2.4743-9.9252 4.6928-10.26 18.143-36.815 4.6604-5.7763 15.791 20.776 16.335 20 4.2833 3.8475 12.459 2.7309 26 3.9094 4.5941 2.0122h4.3345l-1.4643 1.4351-1.4643 1.4351-8 2.8607-26 9.2854-4 1.9826-11 3.8274-13 4.9889-11 4.3228-10.376 4.8619h-1.8272l-6.2966 6.0174v1.5625l-20.5 20.38-15.887 12.04-71.113-.34941zm229.06.05745-4.25-.43716v-.95161l16.669-16.933h10.939l10.228-5.0969 16.664-18.174-.64932-11.229-3.3507-6.3415-9-7.1256-4-3.0082-9-6.6336-10-5.9982-6-2.3483-17-3.8958-15.114-3.7818-12-5.54-14.217-21.327-12.275-22-2.394-3.9914-3.5-5.3173v-2.7667l3.5753-8.4623 3.5754-8.4623 1.438-3.9137 1.438-3.9137.88334-1.0863.88334-1.0863 1.2616-4.25 1.2616-4.25 2.1834-.1736 53.866.3348 11.134 11.488 53.443 54.851 5.2545 7 4.0294 9 2.4254 7 2.4254 7 2.5395 8 2.5395 8 4.0743 15 3.7356 17 .0336 4.3215-11.998 14.679-.001 6.6819-.001 6.6819-5.5789 3.9725-15.921 7.6084-56 .31451-4.25-.43715zm-6.8705-121.36 5.4545-2.0408 5.2218-4.1075 3.8912-7.6274 1.2778-7.9907-3.4061-10.255-2.618-3.1113-2.618-3.1113-8.0827-3.6715h-10l-8 3.8508-5.2613 4.6053-3.6549 7 .006 12 2.1075 4 2.1075 4 4.9172 4.588 9.7775 3.8185 3.425.0936 5.4545-2.0408zm-10.879-12.268-2-1.1912-.73469-1-.73468-1-.0153-6.25-.01533-6.25h13.93l1.145 2.1394 1.145 2.1394 1.6602 5.7886-6.0869 6.9326-6.2928-.1176-2-1.1912zm153.25 133.63-11.75-.3814v-1.6484l18.787-16.288h18.489l8.3313-7.5 6.7588-5.8419-7.8664-3.6202-24-11.344-8.3194-5.6659-.62863-3.7641-.62864-3.7641 3.0813-15 5.8532-22 5.2982-19 2.2325-8.7249 16.112-13.437 10.632-7.6204 14.566 1.2313 23.706 7.8033 2.5188 5.7477 4.0772 9.3903v1.1044l6.4214 13.505-.0794 7-7.5469 18.981-3.7822 7.4137-8.5251 5.8654-9.6501 4.5361-.78535 2.1018-.78535 2.1017-.62925 2.0242-.62926 2.0242 13.875 18.477-3.8852 11.475-2.4983 4.8028v10.197l1.7969 3.75 1.7969 3.75h1.0082l3.0885-7.5 1.3339-3 1.3339-3 3.9532-14 3.0127-9.234-12.92-15.478.35933-1.078.35934-1.078 8.8772-3.2642 6.5407-2.5772 4.7665-10.29 6.1928-14.335v-1.1055l2.5813-5.6434 2.5813-5.6434.51452-3.1706.51451-3.1706-11.192-23.548v-.96665l-2.8767-6.2083-2.8767-6.2083-1.3821-4.5021-4.2523-2.2757-18.112-4.7505-21.478-4.84-.99082-.61236-.99082-.61237-10.54 7.8353-27 21.417-2.1435 1.3412-1.7803 7-1.7803 7-3.7808 17.667-.49056.79376-.49057.79375-1.9917 9.8729-1.9917 9.8729-3.5506 14-8-.1762-14.221-1.5851-4.246-13.239-.92247-4-.92246-4-5.1126-20-4.8132-12-4.7623-8.1395-74-76.305-66.603.44484-5.0358 12-3.1816 8.8897-2.6669 5.1103-.006.72036-.006.72037-4.6879 10.559-2.7274 7-2.4718 4.8364 4.6757 8.1636 8.46 15 4.0827 7 18.594 32.975-1.8404 1.8404-1.2924-.99245-1.2924-.99246-13.571-3.5718-10.429-10.322-1.5048-1.9681-1.5048-1.9681-26.34-32.316-5.0119-7.6843-3.3272-12-4.7245-23-5.2252-21-.86578-4-.86579-4-.6125-9-.61251-9 1.4865-8.5 1.4865-8.5 2.5937-14.5 2.5937-14.5 2.5133-15 2.5133-15 1.8482-12.904 1.8482-12.904-6.1208-5.1928-4.0461-2.8786-1.6826-1.5607-1.6826-1.5607-7.7562-6.311-10-8.2857-4 .9778-15 4.2412-2.6686.87957 8.3087 10.435-6.6401 5.5362-25 16.842-10 5.047-12 1.4057-4.9 1.8347-34.1 3.8789-10 1.8682-8.7488 1.2138.9961-23.563 5.1009-10 20.652-21.186 9-5.6561 24-7.6375 17.45-5.5199.0251-.53655.0251-.53654-9.948-7.4269h-.92395l-16.214 10.853-10.012 2.1472h-5.9016v-1.2009l17.5-26.243 13-13.088 40-19.808 48-23.406 15.544-7.2543h2.9561l-.0436.75-.0435.75-1.907 9-3.8996 22.863 1.0208 1.6517 7.3728 3.6156 16 8.6234 22 12.051 7.6898 7.1956 36.51 55 5.2727 12 3.2001 13 2.4358 9.745 2.4358 9.7449 4.8466 19.51 3.3711 12.565 21.096 13.91.18224-.23762.18223-.23762 2.1742-6.5 2.1742-6.5 4.0881-13 4.752-16 2.8695-9 4.5499-15.431-11.78-15.569-8.0504-10.151-5-6.621-15.335-20.228-1.3324-1.5229-1.3324-1.5229-15-19.856-13.02-13.098-13.98-11.098-25-17.775-14.506-10.808.51192-.82831.51192-.8283 10.482-2.2978 35.479-1.7028 109.52-91.465 152.66-127.2 6.3352-1.8493 422.98-.73367-.9914.95378-.9915.95378-15 4.9265-24 7.4427-7 2.6-24 7.4605-16 4.9676-7 2.5981-19 5.9205-24 7.4195-4 1.8294-21.135 6.8534-15.51 2.1573h-217.56l-6.2984-2.1956v-1.8085l-11.976-8.816-7.675-1.2967-9.108 2.2934-7.2831 6.0033-1.6171 3.1271-1.6171 3.1271-.99416 17.066-55.792 46-4.9142 4.3824-20.524 16.544-41 33.998-46.704 38.957-2.7613 4.2143-2.4276 11.452-2.4277 11.452-4.1648 18.667-.57075.92351-.57076.9235 4.5164 6.4864 8.3185 10 11.448 15-.43308 14 .13845 3.0498.13846 3.0498 5.396 8.3218 9.7886 5.0785h9.4398l7.8757-3.8287 5.1933-5.6713 1.6534-2.4725 1.6534-2.4725v-13.303l-4.9402-8.7519-7.2496-4.8879-19.911-1.1121-18.998-24 .56739-4.5.56738-4.5 3.931-15 1.5372-7 1.5372-7 8.4589-8.4092 2.4004-.0908 14.544 17.5 41.953 50 3.4743 4 4.6277 5.2786 16 19.689 11.367 11.256 6.3825 1.2765 221.25.00146 13.606 16.866 21.829 24.632.0656 2.5h-138.72l-12.777 6.1223-8 4.623-29 16.508-6 3.0392-3.5084 3.0248-2.0896 8.1824-5.1411 17-5.9544 18-2.3064 2.2323-12 3.1343-18 4.9941-12 3.228-16 4.7773-11.5 3.4077v1.4778l51.5 28.522 18.77 11.227 22.23 17.8 23 20.401 26.345 20.8 14.24 10 9.4158 7.2079 19.282 13.199 5.7183 1.3687 2 1.532 19 2.2541 17 1.8633 15 2.8532 23 12.006 8.3306 4.7161 22.263 12.504 13.17 4.2548 18.452-.96516 2.292-1.4165-5.3939-7.377-1.0571-1-1.0571-1-21.528-24.365 1.9264-1.1906 12.038 4.0554h2.2608l6.3023 2.8583 14 3.9824 17 5.2787 17 4.7831 18 5.1972 14.931 3.8518 2.7939 1.0721-2.2632 2.727-9.462 2.5291-6 2.6502-47.824 17.07-2.1758.012-5.775 3.0118-11.225 3.2174-2 1.5695-11.521 3.3371-7.4788-2.4423-6.9704-3.7058h-1.4704l-10.559-4.7791-10-4.1287-18-6.8415-8-2.634-24-.1168-26.9 2.5-29.1-.0478-8-2.0781-21-4.6714-20-5.2961-18-4.7012-6.5-2.066v.80192l5.9387 8.5585-3.8544 24.749-1.7922 2.0082-1.7922 2.0081-12 5.541-8 2.1822-13.564.012-6.4358-2.6902-2.7288-3.2905-5.2712 1.2564-2 1.4906-11 2.4413-34 .49167-11.75-.38141zm58.48-80.966 4.2702-1.6478 6.6169-6.2044 5.8831-10.855v-1.7373l-6.7908-14.408-2.8688-2.7112-2.8688-2.7112-8.7231-3.0777h-5.5043l-7.1698 2.9957-7.3884 6.4871-3.6421 8.0172v10l3.7039 8 5.7522 5.2749 8 4.1367 6.4595.0884 4.2702-1.6478zm-9.9798-13.72-6.25-2.0568v-3.8436l2.2503-7.511 7.2497-1.199 7.7718-.022-.63593 4.6396-.63592 4.6396v7.7209l-1.75-.15541-1.75-.15542-6.25-2.0568zm-101.97-104.69 3.7755-1.0485 6.2856-6.3919 6.1634-11.829 10-2.6785 19-5.1459 18-4.7538 19-5.0044 17-4.8811 3.2582-1.3289 12.947-39.379 11.795-6.6383 5.5733-5.3062 3.0685-10.555-2.2878-11.02-4.8893-5.8106-8.8209-5.1694h-12.224l-7.4203 3.8054-4.29 4.6946-4.2025 7-.008 9.8243 5.3182 9.1757 4.8403 5.8418-.59404 3.0791-.59405 3.0791-4.0794 10.5-4.0794 10.5-2.059 6.2127-13.253 3.1354-15 3.934-23 6.4072-19 4.9484-8.4762 2.1938-3.5238-3.181-11.703-6.1506h-9.1997l-10.171 6.1644-4.5221 6.5995-2.1168 7.6665.59449 4.3373.59448 4.3373 2.8956 4.1975 2.8955 4.1975 3.7328 3.3296 7 1.99 8 .1692 3.7755-1.0485zm-11.953-12.6-2.1774-.46025-1.1648-1.4035-1.1648-1.4035.84215-6.2865.84216-6.2865 14.245-.58248 1.2275 4.5825.0137 5.191.0136 5.191-1.5.92329-9 .99518-2.1774-.46026zm121.99-85.347-2.1846-.88021-2.133-3.9856-.24884-4.8136-.24885-4.8136 13.68-.59548 1.41 1.1702 1.41 1.1702v9.61l-5.2697 4.1452-4.2303-.1268-2.1846-.88021zm-108.07-63.243-2.1077-2.25-2.1332-5.6302v-4.9193l5.5-2.1529 7.348-1.0406 5.152 5.152v7.2036l-6.4457 5.8873h-5.2056zm83.759-14.925-7.5-9.0649-4-4.5999-3.083-3.6602-12.005-14-26.835-32-15.848-19-1.2288-1-3.8286-4.7642-3.8286-4.7642.32859-.89826.3286-.89827 17-15.164 1.3309-.01 11.669 13.5 1.1994 1 17.675 21 14.125 16.163 3.6579 4.4186 3.6578 4.4186 24.392 29 8.837 10.418 7.4552 2.0705 183.5.012v17l-209.5-.11-7.5-9.0649zm18.808-40.98-15.308-18.155-25.075-29.19-25.425-30.289v-1.8571l16.5-13.981 2.2517-1.3368 18.468 21.465 6.8984 8 54.382 65.418 149 .0942 16.5 1.2844v16.704h-182.88l-15.308-18.155zm31.465-25.036-7.7729-9.1908-24.588-29.118-4.5058-5-29.406-35.239v-2.1589l7.5-5.5614 24.973-20.04 3.0272-2.3996 20-16.252 1.5199-1.174 1.5199-1.174 7.3268-5.5h1.8433l9.7901 10.574 7.9143 8.9264 10.998 13 14.834 16.5h211.71l1.4116 2.25 1.4116 2.25 2.5387 8 4.1842 5.9772 3 2.5021 11 5.3 19 8.9 18.5 8.9162v1.7288l-7.5 1.0933-15 1.2831-10 1.888-29 3.7792-16 4.345-18 10.874-15 9.1742-23.726 14.739h-175.73zm41.915-12.567 4.6875-2.7418 8.076-10.225 42.189-1.4594 38.909 1.4514 10.451 10.981 10 4.7327 4.443.02 10.941-4.8386 6.1101-6.6614 1.5739-5.2499 1.5739-5.2499-1.1543-5.5603-1.1543-5.5603-6.3187-7.1966-10.015-4.6635-8 .0244-8.1143 3.6856-9.8785 11.563-82.581-1.4391-9.4258-9.163-7-3.0326-19.896-.30784-1.7188-5.8499-.19249-11-.1925-11-3.7257-7.4953-10.231-7.5047-14.044.012-9.651 6.6887-3.6418 5.9885-1.2583 4.4942-1.2583 4.4942 3.3467 10.323 1.7314 2 1.7314 2 6.48 5.354 10.52 2.0122 9.115 1.1985 5.2596 10.435 2.4488 17.645 5.781 8.7278 10.288 5.1268 9.1073-.016 4.6876-2.7418zm-16.132-12.683-2.293-2.4408.1188-8.6039 4.3716-3.5399 4.7859-1.2012 5.7896 2.3981 1.1798 2.8482 1.1797 2.8482-.67041 3.0524-.67042 3.0524-5.6558 4.0273h-5.8426l-2.293-2.4408zm124.61-1.2259-.66667-.66666.0222-4.0833.0222-4.0833 3.4555-4.2337 6.7984-2.2663h4.5598l2.309 11.5 1.0496 4.5h-16.883l-.66666-.66667zm-161.44-40.956-1.271-.55789-2.9579-5.72v-3.2993l7.0417-7.0417 6.2677 1.2536 1.3246 1.0993 1.3246 1.0993 1.4391 2.8847 1.4391 2.8847.64021 2.9149.64021 2.9149-.80854.49343-.80855.49343-13 1.1386zm55.06-39.639-5.2114-6.2382-7.2929-8-17.284-20.658-1.2436-2.3477-1.2436-2.3477 25.487 1.1187 14.298-13.265h25.872l13.83 16.285 2.172 2.2445 17.596 20.971 1.5573 1.25 1.5573 1.25 104.12.008 28.236 1.2918 2.5912 7.3504 2.5912 7.3498-202.42-.02365zm74.211-28.405-4-2.635-16-19.098-.33333-.80015-.33334-.80015h171.05l1.0156 1.6432-3.3976 3.1866-16 21.084-128 .0544-4-2.635zm-94.441-25.263-4.1272-4.9295 6.2398-10.141h6.7611l7.0673 6.4862v2.6336l-10.29 10.88h-1.5236z" fill="#b4c5a8"/><path d="m121.25 700.33-11.25-.39226v-1.7502l19.87-15.876 20.693-1.1719 10.937-5.4825 14-8.9399 15-12.059 14.363-13.887 1.3374-8.2689 2.7832-7 2.7832-7 20.23-41.187 3.7661-3.4083 15.737 20.38 18.278 22.293 5.3558 2.4403 20.366 2.9366 22.5 4.49v1.3413l-3.5 1.399-36 12.881-6.3023 2.9342h-1.2408l-18.457 7.0922-10 4.1391-14 6.5495-14.187 16.818-17.813 14.941-7.2065 5.3384-56.794.84112zm228.5.002-10.75-.39612v-1.4765l16.542-16.456 10.958-.044 8.1467-3.7001 7.8533-7.8405 10.427-11.204-1.7528-15.711-8.6738-7.722-15.482-11.672-12.252-7.1807-16.266-4.0109-16.352-3.7954-14.754-6.1422-7.1316-9.4772-7.966-13-18.419-31.768 4.4503-11.232 1.407-2 4.1672-11 2.5037-6 2.5037-6h54.591l17.284 17 49.716 51.172 6.3619 10.828 12.26 37 5.6444 24 1.3396 7.5822-13.095 16.418-.012 13.171-20.5 10.454-42 .5988-10.75-.39612zm-9.6131-122.91 4.3631-2.7479 1.2725-1.5861 1.2725-1.5861 1.9775-3.7102 1.9775-3.7102v-11.159l-1.9084-3.7102-1.9084-3.7102-5.6832-5.3821-9-4.074-6.3342-.044-9.6658 4.1286-2.8416 2.6857-2.8416 2.6857-3.9759 7.732-.0973 5.134-.0973 5.134 4.2846 8.2851 8.4895 7.2667 6.0795 1.8841 10.274-.76799 4.3631-2.7479zm-15.137-11.114-1.5-.53609-1.25-1.5761-1.25-1.5761v-11.618l12.5.0306 1.1387.73468 1.1387.73469 1.0677 3.884 1.0677 3.884-2.8388 5.4896-3.2375 1.2424-5.3364-.1578-1.5-.53609zm156.18 134.02-15.325-.3757.32451-.87192.32452-.87192 19.233-16.203h18.133l14.135-12.438v-1.6741l-9.5-4.082-28.17-13.821-1.3013-2.4315-1.3013-2.4315v-7.8124l2.2446-9.4047 2.2446-9.4047 4.7835-17.5 5.0645-18.5 2.0107-7 16.065-13 10.36-7.6997 13.043 1.1712 21.44 6.9492 3.7424 2.0029 2.5741 6.5764 5.9316 14 4.8938 10.833-3.2275 9.0835-3.2275 9.0835-2.9697 5.9882-2.9697 5.9882-3.2307 2.5487-15.472 8.4749-.0404 2-2.9421 5.6407 13.954 18.056v2.9625l-5.5 13.341.002 6.513.002 6.513 4.3785 6.9153 4.3488-9.9413 4.3782-13.5 4.3782-13.5.006-.84632.006-.84631-10.567-12.307-1.3401-1.7515-1.3401-1.7515 9.7474-4.1158 7.3822-3.1318.48679-1.1247.4868-1.1247 3.6248-8.5 3.6248-8.5 4.4473-11.282 4.4476-11.282v-.773l-12-25.164v-.94023l-4.7966-10.559-3.1014-7.5h-2.8033l-19.799-5.8405-23.21-5.3709-38.789 30.328-1.7246 4.3838-2.4097 10.5-2.4097 10.5-2.512 11-2.512 11-2.163 9.8561-2.163 9.8561-21.107-1.3964-.60506-.65788-.60506-.65789-5.0511-17-7.2128-27.57-3.7362-7.715-3.7362-7.715-45.151-46-29.903-30.489-66-.21892-4.1499 7.7083-3.1854 9-7.2369 17-7.138 17.53 1.6551 2.526 1.6551 2.526 4.5962 8.4177 21.605 38 5.8845 10.648-.77071.77071-11.829-3.0888-7.3224-3.7356-12.912-14.594-15.204-19-10.861-13.277-4.2172-8.7232-1.5516-7-1.5516-7-2.0183-9.9674-2.0183-9.9674-2.9499-10.147-1.5356-7.4589-1.5356-7.4589-1.6587-14.664 1.6371-13.336 2.6467-15 2.6467-15 4.7686-28 2.6059-17.384 2.6059-17.384-2.6605-2.4365-28.589-23.509-5.4111.95316-16.485 4.7608-.016 1.1718 7.4626 9.5786-6.9626 5.8841-9 6.1814-14 9.4252-12 5.9961-28 4.33-32 3.8995-8.819 1.3083 1.2999-18.314 2.2942-9.4614 4.481-6 15.443-16.48 11.617-8.7329 29.683-9.4658 13-4.3038.427-.26886.427-.26885-3.854-3.0269-8.1774-5.8266-10.823 7.6321-10 5.1767-11.771 1.3727 1.7713-2.9571 17.373-25.85 11.065-11.089 37.562-18.75 52-25.36 15.674-7.4598.89572.89573-3.9617 25.848-1.0542 2.7727-1.0542 2.7727v1.649l34.5 18.958 12.759 6.6796 8.9437 8.9437 5.1066 8.1398 14.532 22 11.738 17 5.2885 9.1304 4.1531 10.87 6.5702 26.5 6.5701 26.5 3.0681 10.068 20.532 13.432h.99498l4.0699-11.5 5.9855-19 5.1039-17 5.0846-16.603v-4.0452l-30.346-39.352-9.28-12-18.2-24-14.674-14.153-10-8.0261-38.093-27.126-2.6326-3.1721 1.3626-.40483 1.3626-.40482 12-2.5098 32-1.2202 25-21.153 69-57.623 49.972-41.604 49.973-41.604 68.838-57.337 12.217-1.3167 414.66-.91835-.5952.9629-.5951.9629-3.236.97978-3.2361.97978-36 11.328-11 3.746-36 11.33-31 10.037-41.662 13.755-18.338 1.888-216.19-.39724-11.97-11.082-8.069-2.4175h-5.5359l-8.0949 2.4253-7.3795 7.0747-3.2576 11.308v10.967l-20.5 16.698-52 43.055-28 22.89-70 58.221-7.8328 35.862-1.3336 3.8757-1.3336 3.8757v3.8833l23.5 30.035v20.331l2.4065 3.8713 2.4065 3.8713 9.0785 5.7574h13.217l9.086-5.7622 4.228-5.9377.96369-4.2891.9637-4.2891-.89049-5.4714-.8905-5.4714-5.352-7.0168-9.2169-4.1733-15.523-.48509-.98177-.60676-.98177-.60677-17.128-22.024-1.0377-2.7042 7.2064-29.662 1.9562-7.2679 8.8457-7.2484 10.945 12.516 40.328 48 33.674 40 8.2922 8 226.93 1 19.198 23 11.806 13.268 4.1987 5.3377-1.3951 1.3947-136.56.1498-14.77 7.0626-18 10.568-26.085 14.658-6.6347 21.562-4.9336 16-2.9989 8.4653-7.3478 2.0198-12 3.1542-17 4.6968-19 5.4406-15.887 4.3853-.64994 1.9498 6.5373 3.3944 12 7.0005 12 6.2743 32.172 18.448 11.828 7.5646 28.912 24.178 20.088 17.625 23 17.524 35.029 25.099 8.5057 4.3393 9.4653 1.7901 26 3.1816 16.569 2.1862 22.451 11.284 39.896 21.982 21.085.65727 7.7306-1.6733-9.5755-11.755-19.726-22.188 2.0834-.69446 23.488 7.3406 12 3.7121 14 4.3772 13 3.6114 18 5.236 17 4.6609 4.9259 1.9341-4.1204 2.2052-65.806 23.234-14 5.0602-13.049 4.9352-16.951-6.9923-15-6.3767-12-4.9328-20-7.067-38 1.1733-23 2.2755-19-1.2507-22-4.7818-16-4.0352-23-6.0329-11-3.0922-1.5332-.0238 3.3814 4.9157 3.3814 4.9157-2.7163 14.669-1.985 10.97-4.5284 3.4934-15 6.305-12.309.99007-7.1324-1.338-6.1435-5.1694-18.475 5.243-26.94.70443-15.325-.37569zm60.054-82.916 4.2706-3.001 7.5-12.897-.0254-2.0044-.0254-2.0045-7.5375-15-9.6377-6.5h-12.382l-9.086 5.7622-4.0767 5.7378-3.2288 7.7442.022 3.6279.022 3.6279 1.8588 4 1.8588 4 7.7384 7.3822 6 3.2177 12.459-.69213 4.2706-3.001zm-15.101-12.2-5.3716-1.5608 1.1205-10.856.36994-.36995.36995-.36994 14.699-1.3661-1.2887 4.8166-.0137 5.75-.01361 5.75-4.5-.2328zm-100.98-104.23 3.6516-1.0142 7.0955-7.8539 4.3591-10.133 5.2423-1.146 17-4.7265 35-9.2529 13-3.5598 16.434-4.5929 12.322-38.195 4.6404-4 11.249-7 3.9952-6.4638.56866-5.5097.56865-5.5097-3.3116-8.6713-6.3449-6.4897-6.1216-3.2883-13-.0674-9.6552 5.6753-5.8448 9.2163v12.381l8.5 12.414 1.7349 2.4096-7.5618 19.904-4.3711 11.779-32.802 8.4871-45 12.112-8.426-5.949-7.0097-2.9289h-10.673l-8.8916 5.6974-3.4237 3.8758-3.0763 7.3626v8.3322l2.2846 7.6253 7.7411 8.0562 6.4743 1.8701 10 .1692 3.6515-1.0142zm-14.91-14.133-1.2414-1.2414.0306-10.1 1.8821-2.9768 12.587-.0232 1.8558 11.712-1.0319 1.6438-1.0319 1.6438-11.809.5829-1.2414-1.2414zm121.74-85.87-1.0857-2.0286-.57585-4.8621-.57585-4.8621 8.2093-1.3869 6.5434 1.4197.73469 1.1244.73468 1.1244.0153 3.5275.0153 3.5275-3.1134 4.445h-9.8162l-1.0857-2.0286zm-105.79-62.397-3.0078-3.4257-1.3684-6.2305 2.1532-2.5944 7.9471-2.381 4.7207 1.1848 3.3559 5.6811v4.4553l-7.1424 6.7362h-3.6504zm86.632-10.928-4.331-5.3542-37.927-44.792-15.942-19-22.631-26.426v-.80482l18.318-16.498 1.5909 1.9757 1.5909 1.9757 29.975 34.778 1.0926 1 26.96 32 14.972 17.882 10.494 11.379 8.8914 2.2389h181.11v15h-209.84zm17.511-42.443-13.158-15.702-48.388-57-5.8755-7.3873 18.357-15.613 1.2218.72546 29.014 34.275 30.097 36 19.442 23.5h141.63l24.314 1.3074v15.693l-183.5-.0954-13.158-15.702zm31.158-25.434-7-8.2266-60.498-72.042.0962-1 17.402-13.376 48.626-39.165 1.7917 1.1073 19.583 21.468 22.87 26.456 212.79.509 5.9531 13.955 4.7871 6.2762 8.6032 4.0852 25 11.842 16.602 7.7052-2.7844 1.5582-36.818 4.1497-1.3981.48982-1.3981.48981-22.204 3.0048-14 4.1456-23 14.118-21 12.849-12.701 7.832-174.3-.006-7-8.2266zm40.075-12.371 3.3776-1.6028 6.547-7.5769 4.3487-5.2175h79.572l12.079 12.591 7.3023 3.4085 7.6977-.044 8-3.6468 6.2739-5.2968 4.2261-8.9907v-9.9277l-2.4025-5.5941-3.7282-5.4923-8.9317-5.2343-8.0733-1.8139-8.3643 2.2098-13 13.331-82-.60307-9-8.6818-7-3.623-21.342-.80791-1.1728-9.2842.39006-18.505-5.9385-8.4948-9.9367-6.6915-13.414.75203-8.5303 5.9953-5.8855 8.374-.45137 5.4429-.45136 5.4429 4.6666 9.3439 7.3364 6.628 14.124 3.2125h4.7229l3.2731 2.5 1.9762 5.0882 1.9762 5.0882 2.4133 16.504 6.2435 8.1668 8.8146 4.6523h10.883l3.3776-1.6028zm-15.503-15.032-2.0726-2.6349v-5.6188l4.5-5.1137 6.1737-1.1826 5.3284 4.6847.58753 3.068.58752 3.068-5.355 6.364h-7.677zm124.93-4.4106v-5.0455l4.9091-4.9091h8.9252l1.0829 5.0492 1.0829 5.0492v4.9016h-16zm-162.44-38.308-2.5554-2.5554v-6.0909l3.9491-3.9491 5.0509-1.2677 5.1318 1.288 2.9395 7.0351 1.1378 5.6889-5.709 1.1364-7.3891 1.2702zm49.462-45.747-12.446-14.101-13.504-17.199.47113-.47112 21.962 1.6238 6-2.5067 12.384-11.308 24.52.56249 35.817 41.5 85.279.27104 47.714 1.229 2.3932 6.3717 2.3932 6.3717v1.7565h-200.54zm81.561-20.237-3.9215-2.1616-16.498-19.948.47952-.77589.47952-.77588h167.55l1.2386 1.2387-13.269 17.261-5.9709 7.5-126.17-.1768-3.9215-2.1616zm-94.976-25.557-3.8036-3.8952 1.4334-4.7095 4.8696-6.5h4.7448l6.1985 5.2157 1.8262 3.4122-9.9455 10.372h-1.5199z" fill="#9eb58e"/><path d="m127.25 700.23-17.25-.27362v-1.5166l19.5-15.931 21.267-1.3582 12.598-6.3592 8.1358-5.2382 16-11.995 17.176-16.527 1.1882-5.3094 1.1882-5.3094 5.6934-13.909 19.348-39 1.7722-1.7908 1.7722-1.7908 15.761 20.582 18.535 22.23 5.9357 2.4587 22.631 3.6205 19.744 3.5396-1.5414 1.1271-1.5414 1.1271-19.661 7.2908-35 13.004-22 8.8803-9 4.0997-14.713 16.463-13.287 12.175-12 9.2068-45 .77856zm228.5.0253-16.75-.30006v-1.4958l16.542-16.456 9.9582-.012 7.887-2.1897 19.683-20.299-1.3348-13-1.8141-4.837-1.3398-1.0815-1.3398-1.0815-22.742-17.14-9.2467-5.2958-32.753-8.2139-10-3.6498-5.6994-2.6124-14.501-22.088-7.6998-14-10.647-17.648 7.7519-18.352 7.6618-18.698 55.133 1.3909 7.3072 7.3069 57.427 59 5.8391 8.4669 9.086 25.533 6.5888 22 4.1196 18 1.2941 6.513-13.162 15.78v13.818l-19.227 9.7361-19.273 1.5554-12-.35114-16.75-.30005zm-15.471-122.68 4.492-2.6325 2.8644-4.222 2.8644-4.222v-16l-3.2295-4.6503-3.2294-4.6503-10.434-5.1994h-8.8882l-8.9726 4.4811-7.5132 8.5355-2.2975 9.1241 1.3076 7.3593 4.2149 7 5.0418 4.7711 8 3.8112 11.287-.87327 4.492-2.6325zm-15.279-11.27-1.5-.53609-1.25-1.5761-1.25-1.5761v-11.618h12.954l1.4418 2.25 1.4418 2.25.38386 5-.22138 2.5-4 4-6.5-.1578-1.5-.53609zm157.2 133.79-16.301-.60075 7.603-7.1283 12.272-10.372h18.114l14.114-12.178v-2.8223h-1.9561l-15.544-7.1509-18.741-9.3491-3.7588-4.7697v-10.088l1.9368-6.142 9.2154-36 4.3461-16.866 15.002-12.848 12.57-9.0115 12.43 1.3724 24.938 8.3532 10.236 25 1.6708 3.2145 1.6708 3.2145-3.1595 8.571-2.7335 8.4138-5.8745 12.586-4.7471 4.2582-13.826 7.2552-3.69 8.2418 11.516 14.779 1.4603 2.4032 1.4603 2.4032-5.6344 13.66-1.0327 11.154 4.1171 9.3074-1.5455.9552-6.7852-5.6646-4.0399 1.7151-15 3.895-24 .83885zm56.32-81.11 4.1497-2.0088 4.1798-4.4823 6.9288-12.297-4.621-11.37-2.5105-3.7936-2.5105-3.7936-7.2557-4.4842-7.3662-1.6614-8.9317 2.0016-8.8294 7.235-4.7321 10.163-.02 8.6977 3.4337 7.2359 7.0819 7.0819 6.9844 3.4389 9.8686.0456 4.1497-2.0088zm-11.882-13.726-5.8642-1.5364.94612-9.8464.89113-.87259.89114-.87258 12.5-1.3954v16.258l-3.5-.1984-5.8642-1.5364zm24.364 94.757v-.97784l4.9285-10.544 4.3045-13.669 4.3045-13.669-13.587-16.086 5.5494-2.778 10.852-3.7989 3.7894-8.193 3.7894-8.193 10.318-26.109-4.3047-10.007-7.8209-16.499-7.848-18-12.775-3.6438-26-6.597-7.6019-1.369-19.398 15.117-19.543 15.334-2.7428 10.16-6.2139 27-1.9218 8.5-1.9218 8.5-2.3247 11.627-1.2847.493-1.2847.49299-19.737-1.6133-3.7174-13-4.5577-18-4.0175-14-5.052-11.34-4.9771-7.3245-38.704-39.378-34.615-35.484-66.095.52682-3.9254 9.5-3.9254 9.5-8.0413 20-3.6371 8-1.4255 4.594 21.934 38.406 13.383 23.681-.37279.37279-.3728.37279-9.907-2.694-9.2929-4.0725-14.084-16.66-23.839-29-5.1248-10.118-3.1273-14.882-2.5458-11.893-2.5458-11.893-.96636-1.5636-2.4872-12.212-2.4872-12.212v-15.755l3.101-17.735 3.1011-17.735 3.6231-22 3.1569-19 1.8394-11.489 1.8394-11.489-5.1609-4.0147-25.804-21.506-4.1965-.004-18.494 5.5046-.003.8317-.003.83171 7 8.5426v1.2309l-11.12 8.2148-20.864 13.952-10.515 4.7263-29 4.3007-37 4.6746-1.014-.62283 1.2591-21.682 3.1942-7.599 15.561-17.134 12.7-10.572 14.3-4.9839 13-4.0155 17.544-5.5624-.27218-.77173-.27218-.77174-10.864-8.0918-4.1359 2.9149-13.389 8.2495-9.4291 2.8377h-4.8961l.56823-1.4808.56824-1.4808 15.578-23.456 12-12.938 88-43.382 17.815-8.2807.38868.38867.38868.38868-1.5575 9.8703-1.5575 9.8703-3.1325 12.745 1.6548 1.5669 40.376 22.187h1.7247l11.098 9.8913 34.986 52.609 2.0141 3.5642 2.0141 3.5642 4.1959 12.872 9.2452 37 4.8464 19.679 1.564 2.7947 21.301 13.866 10.333-32.339 3.7032-12 5.1806-17 .53685-4 .53684-4-25.75-33-16.841-22-14.538-19.179-18.527-17.857-25-18.317-21.87-15.646-.0651-1-.0652-1 22-3.3306 23.341-.16941 62.659-52.4 197.88-164.94 5.1232-2.4439 33.039-2.2148 391.96.03062-3 1.9372-26 8.2583-14 4.5719-33 10.458-23 7.5197-27 8.4857-20 6.7919-19 6.0897-17 1.4017-216-.04468-10.799-10.368-11.617-4.3446-11.461 3.605-6.524 5.7282-4.0986 10.954v12.558l-18.5 15.132-49 40.339-77 63.715-25.877 21.68-5.5845 24-5.0627 21 .0418 3 9.4821 12.106 13.932 17.735.0339 10.08.0339 10.08 4 6.788 7.0352 5.6856 9.4648 1.7682 9.4648-1.7682 3.5176-2.8296 3.5176-2.8296 4.265-6.2614.64924-4.3294.64923-4.3294-2.2791-10.627-6.8752-7.61-9.2654-3.157h-14.398l-18.377-23.179-.48195-1.256-.48196-1.256 6.1558-24.809 2.9408-11.474 7.4988-6.9717 2.4512-.0542 28.902 34.5 24.449 29 24.198 28.983 10.641 12.017 6.3275 3.5h224.12l27.332 32.5 8.3415 9.5679-.47696.47697-.47697.47696-137.81.47827-11 5.4106-25 14.432-22.266 12.662-5.2833 17.496-4.5759 14.168-4.5759 14.168-16.299 4.2769-13 3.7456-19 5.2739-21 6.03-1.25.38788-1.25.38787v1.8314l49.5 27.495 19 11.123 14 10.478 45 38.639 12 9.083 33.945 24.741 13.055 8.3927 7 2.1632 17 2.9735 17 1.3352 15.415 2.6301 21.585 10.881 9 4.9952 13 7.4863 18 9.3146h27.333l1.4006-1.4006-10.734-12.806-18.641-21.294h2.0504l35.59 11.097 17 5.0509 12 3.6852 27 7.3098 11 3.6185-6 2.4677-15 5.4769-35 12.426-41.793 14.792-10.767-4.9247h-1.1167l-16.324-7.2854-15-5.8158-19-7.0777-37 1.1954-42 1.2273-16.79-3.4348-26.21-6.6742-20-5.2884-11.789-2.8907-.27533.27533-.27533.27532 5.8398 8.5644v4.7152l-1.4313 7.357-1.4313 7.357-.59958 3.6731-.59957 3.6731-8.4382 4.9404-15.542 5.2134h-11.958zm-124.17-199.57 3.8672-1.5473 2.3567-3.1876 2.3567-3.1876 2.3127-4.794 2.3127-4.794 4.4674-1.8176 22-5.8553 21-5.5079 13-3.6206 25.888-7.1291 1.322-1.5119 5.54-18 7.0445-20.649 10.855-6.1261 6.6679-6.2886 3.3661-11.579-3.3743-10.316-3.9398-5.533-8.3693-4.9044-8.3596-1.3365-9.839 2.3603-7.3431 6.0528-3.2958 6.32-.70953 3.8186-.70953 3.8186 1.8572 8.3627 9.0117 11.647-6.4518 18.353-1.3959 2-3.3742 10.346-2.3904 1.9073-18 4.2843-14 3.8231-23 6.301-21.299 5.3912-6.7012-4.7544-8.7186-3.989-9.341.0724-5.3358 2.0287-7.9877 7.2164-3.3622 8.8039.43566 6.023.43567 6.023 6.0575 8.5229 8.7403 4.5h12.536l3.8672-1.5473zm-15.577-13.429-2.25-.95875.011-2.7822.011-2.7822 1.2535-7.5851 13.223.5851 1.4823 11.92-1.8628 1.8628-9.6177.69968-2.25-.95875zm121.47-85.778-1.588-1.7547-1.3916-10.491 6.7577-.35006 8 .54098.73471 1.1545.7347 1.1545.0306 7.1229-4.0779 4.3771h-7.6121l-1.588-1.7547zm-106.59-62.604-2.2159-2.3587-1.0091-3.6547-1.0091-3.6547 1.1221-1.8156 9.0382-3.4517 5.045 2.2987 1.4415 3.4499 1.4415 3.4499-1.8606 4.8938-4.5712 3.2018h-5.2064zm82.367-16.381-9-10.669-66.571-78.985.28537-1.1995.28537-1.1995 16.667-15.03 22.333 25.479 37.265 43.844 25.289 29.973 5.4456 3.0274 186.5.54007v14.96l-209.5-.0702-9-10.669zm29.793-28.011-5.9134-6.75-31.879-37.988-25-29.184-12.466-15.118 17.102-14.709 1.6129-.5832 39.838 46.583 39.465 47.5 137.45.008 28.5 1.3038v15.689h-182.79l-5.9134-6.75zm26.207-31.122-4-4.867-29.36-34.761-36.18-43 .26994-1.258.26995-1.258 64.868-52.006 5.7926 5.5215 24.572 28 12.915 15 212.85 1 8 16.349 4 4.3741 23 10.992 17 7.7447 9.6915 4.7517-6.6915 1.3653-38 4.8915-25 3.9724-11 4.2377-23 14.12-25 15.39-7.2361 4.3116-173.76-.004-4-4.867zm36.858-15.505 3.2941-1.3764 11.703-13.247h78.841l11.022 11.927 8.4135 4.0729 6.8686-.012 7.1307-1.9809 8.4383-7.2228 4.2076-8.2477-.0838-5.9134-.0838-5.9134-5.6821-9.2106-9.5955-6.2982-8.7228-1.3081-7.7565 2.0886-7.9542 7.5177-4.4096 5.7848-82.278-.33962-8.1186-8.1186-10.091-5.2472-18.35-.0962-1.6312-1.6312-.1856-25.352-3.1887-6.1216-3.3223-3.3076-3.3222-3.3084-6.4358-2.7616-10.564.044-8 3.685-5.3305 5.0185-2.0848 4.0865-2.0848 4.0864v10.159l3.8247 7.4203 6.8617 6.5884 12.814 3.8963 5 .0426 4.3584 1.1689 5.1486 12.304.97672 7 .97671 7 .0396 2.4942 7.3533 8.1392 7.1467 3.7781 11.564.0884 3.2941-1.3764zm-14.931-14.704-1.8823-2.0799v-7.6805l3.6017-3.9799 4.714-1.1831 2.5215.95867 2.5215.95868 3.2534 6.2913-1.2166 2.9371-1.2166 2.9371-4.1694 2.9204h-6.245zm126.32-.60946-1.75-.45732v-8.6318l3.5789-4.4198 9.3737-1.0566 1.0974 2.8774 1.0974 2.8774.56559 4.75.56558 4.75-12.779-.232zm-165.1-43.401-1.6495-2.355.0318-2.5275.0318-2.5275 1.2182-1.5867 1.2182-1.5866 4.3685-2.3267h3.8618l5.0192 3.9481 2.3405 9.2952-.85323.85323-13.938 1.1685-1.6495-2.355zm54.324-40.604-8.474-9.6943-13.416-15.729-7.3231-9.9761.73934-.66484 22.676 1.7999 9.3239-6.8721 5.8742-6.169h26.298l28.127 32.5 6.7009 8.3968 65 .38909 68.725 1.2141 4.7418 13 .0332 1.5h-200.55l-8.474-9.6943zm78.505-24.663-5.0206-2.338-16.475-20.305h170.26l-6.8851 8.5-10.62 14-3.1178 2.5-123.12-.02-5.0206-2.338zm-95.863-25.645-3.6164-4.0029v-1.6027l5.956-9.3916h4.9745l7.0696 6.2072v2.8785l-9.2737 9.9143h-1.4936z" fill="#8aa576"/><path d="m502.96 700.63-.50212-.50212-35.457-.53775.0136-.54273.0136-.54274 18.79-16.5 9.3412-.0203 9.3412-.0202 15-13.732-15-6.5942-24-12.272-2.5587-4.8612.37419-4.5.37418-4.5 3.4417-16 2.723-9 3.6061-13.5 3.6061-13.5 2.27-7.5495 19.164-15.627 8.4523-5.5575 9.5477 1.366 19 5.7578 7.3552 2.4016 9.3874 22.209 4.5045 9.81-2.9203 8.095-2.9203 8.095-6.2848 13.551-6.1218 4.6684-12.124 6.1192-1.828 4.0538-1.828 4.0538 2.7796 3.882 11.83 15.46-2.5782 6.2113-3.6861 10 .0226 10 2.8221 7.9234-.85546.85546-6.8818-5.249-6.6727 2.7607-16 3.0809-15.039 1.256-.50211-.50212zm34.145-80.637 3.6033-1.0009 6.8221-6.6256 6.4079-12.023-4.0901-10.764-5.3704-7.9963-8.4706-5.9533h-12.663l-7.203 4.4517-6.39 7.2779-2.7498 6.5812v9.1285l2.8247 6.7605 8.3419 8.3419 6.3334 2.7551 9 .0672 3.6033-1.0009zm-9.8729-14.874-5.2697-1.8203-1.2016-1.2016 1.3419-8.9483 9.9975-2.1441h3.9016v16l-3.5-.0652-5.2696-1.8203zm24.293 94.923-.59486-.9625 2.399-4.7875 2.399-4.7875 4.3704-13.5 4.3704-13.5.0164-.741.0164-.74101-13.415-15.783 12.415-5.3012 4.9675-2.4922 5.8312-13.942 10.701-25.991v-4.1092l-1.7462-1.9-12.915-29-4.8385-11.274-8-2.1478-30.358-7.934-8.6419-1.2092-14.775 11.565-24.557 19.377-2.2941 11.623-2.7386 10-5.2104 23-3.785 18-1.3625 3.5247-19.277-1.2684-2.3804-2.2562-4.3023-15-2.8602-12.852-5.2088-17.148-3.4248-6.8256-3.4248-6.8256-75.399-77.838-66.43-.01-.9614 1.7964-.96141 1.7964-8.362 20.907-1.3183 3-1.3183 3-5.2829 13-1.5286 4.2546-1.5286 4.2546 18.864 33.491 16.329 28.831-.7045.7045-13.798-4.6771-5.9394-2.8588-29.684-36-9.1966-11.944-4.4537-11.056-.68323-4.5-.68322-4.5-3.9796-17-5.8243-24-1.1479-8.9469-1.1479-8.9468.6454-7.1222.64539-7.1222 4.0646-22.862 5.0076-29 4.7817-30 2.0673-11.971-6.4718-5.0212-25.599-21.337-18.401 5.0302-4.7134 1.3663 6.8014 8.9328 1.3765 2.2515-13.494 10.034-15.093 9.9949-11.878 5.8833-11 2.3448-28 3.9853-24 2.9762-5.7792 1.0356 1.0163-22.506 2.9651-7 15.798-17.237 13-10.914 15-5.1784 29.5-9.397v-1.5326l-10.914-8.2403h-.95939l-13.626 9.3511-13 4.6068-2.25.0211-2.25.02064v-.94447l13.508-20.556 8.1902-11 8.0243-7.2439 71.171-35.224 17.607-8.2392 15.768-7.8586.3414.3414.3414.34141-.96399 6.4414-.96398 6.4414-4.3921 20.464.43478.37377.43478.37378 29 15.606 19.907 11.182 10.093 12.251 16.576 25.749 13.092 19 4.6905 9.1543 4.9473 15.846 4.374 18 3.8886 16 2.7158 10.478 2.7158 10.478 21.958 14.477 1.702-3.0413 10.02-31.391 5.0451-17 4.533-16.148-2.2585-3.9869-17.502-22.865-14.004-18-23.494-30.994-15.033-15.039-23.967-17.811-8-5.7238-19.52-14.342 2.6228-1.4678 28.31-3.1227h15.195l14.391-12.157 9-7.4789 62-51.796 109-90.806 26-21.65 21.171-17.612 8.6903-7 12.509-10.624 24.629-2.1653 401.64-.75328-1.0772 1.743-14.567 4.4233-11 3.764-36 11.239-11 3.7752-36 11.325-54 18.273-233.1.54008-9.688-9.2828-10.888-4.9847-8.0071 1.2804-7.3165 3.7524-4.1308 4.6946-3.727 5.9756-1.1423 17.272-31.178 25.752-8.65 7-47.32 39-31.628 26-51.225 42.697-2.2162 9.6514-2.2162 9.6514-4.368 18-2.5059 10.443 20.964 26.368 1.6321 2.491 1.6321 2.491-.58332 15.394 1.0588 3.9321 1.0588 3.9321 7.5437 7.2121 5 2.616 13-.012 6.4068-3.37 6.926-7.1315 2.3592-9.834-1.3248-9.6323-2.1836-3.9495-2.1836-3.9501-10.859-5.5h-16.168l-8.9737-11.399-10.486-13.575 5.0627-20.526 4.2163-16.532 7.713-6.9682h1.769l11.651 14.421 18.757 22.079 8.5584 10 28.679 34 20.893 24.733 6.6223 2.767 210.56.26141 14.155 1.2386 13.676 17 20.669 23.241v1.2587h-134.64l-10.286 3.0546-13.577 7.8732-38.328 21.572-2.697 9-2.697 9-5.0024 16-4.0351 11.542-1.6066.99294-22.634 6.1203-17 4.7645-17 4.9329-13.59 3.9032-1.2437 1.2437.83333.717 55 30.517 15 9.0518 18 14.071 21 18.231 24 20.073 19 13.92 21 15.084 13.525 9.358 17.475 4.1328 30 2.8884 11.434 2.8966 13.566 6.8409 42 23.26 7 1.9465 24.382.012 1.2829-2.0758-11.665-14.265-17.296-19.159.67661-.71349 31.62 9.9925 17 5.0918 17 4.9715 21 6.0249 17 4.9206-3.7885 1.5368-93.9 33.479-10.312-4.5126-13-5.5315-6-2.6247-17-6.832-15.547-5.5876-40.453 1.2962-35.508 1.2622-15.138-2.4421-42.354-10.708-19.895-5.1584-1.5553.53508 6.2665 9.6226-1.5996 8.6887-1.5996 8.6887-1.217 8.0502-9.9172 5.5747-14.333 4.8751h-10.532l-.59486-.96251zm-126.91-198.51 4.9719-1.4765 5.2078-5.547 6.2402-12.5h.71795l14.753-3.806 46-12.395 8-1.8855 13-4.0974 4.159-1.6182 4.5365-14.698 8.1292-24.539 11.175-6.2714 3.7594-3.1896 5.093-8 .0642-12-2.1494-4.0947-2.1494-4.0947-7.0632-6.2015-7.5547-2.098h-7l-8 2.2147-9.2651 9.2742-1.1399 5.5165-1.1399 5.5165 1.4219 4.7246 1.4219 4.7246 8.3906 10.022-4.1316 10.496-3.6172 10-3.6172 10-1.442 1.5184-18.882 4.8552-23 6.2949-35.065 9.1405-10.935-7.2187-9.7592-2.1568-10.241 2.9786-8.2375 8.588-2.2625 6.7984.022 5.1008.022 5.1008 3.7039 8 6.006 5.6383 8.7462 2.7279 6.137.1338 4.9719-1.4765zm-12.609-14.418-2.5-.69541.0625-2.7049.0625-2.7049.375-8h12.786l1.214 3.1636v10.586l-6.25 1.25-3.25-.1994-2.5-.6954zm121.21-85.855-2.0098-1.75-1.2709-10.5h14.836l.60297 2.25.60298 2.25.0137 2.2954.0136 2.2955-4.9091 4.9091h-5.8693l-2.0098-1.75zm-423.21 298 .006-.75 20.794-16.5 7.3474-.0245 7.3474-.0244 8.5292-1.9678 15.187-8.4834 18.284-13.725 17.494-17.227.65189-3.5237.65188-3.5237 2.2936-6.1204 2.2936-6.1204 21.01-42.759 1.8268-2.2765 1.8268-2.2765 7.9461 10.553 22.159 28 7.2622 6.3648 9.5844 1.3525 16 2.8613 18.5 3.2293v1.4781l-1.75.6998-1.75.69979-27 9.7184-27 10.212-10 3.7256-16 6.8023-5.2299 2.8562-9.9705 12-15.8 15.001-14 10.48-78.5.02.006-.75zm229.99-.37611v-1.1261l14.684-15.021 11.816-.47539 7.975-3.3483 18.525-19.356v-4.8838l-1.0917-6.2692-1.0917-6.2692-20.317-15.861-14.559-9.2897-25.441-6.224-19.994-6.1921-8.0064-8.1022-12.255-19.957-10.587-19-4.6579-6.9643v-3.7112l10.228-24.325 4.7885-10.777 10.484 1.2593 43.329.018 42.955 43.5 20.162 21.157 6.2533 7.8434 1.7697 3.5 1.7697 3.5 9.4641 28 4.8272 16.632 2.4521 11.577 2.4521 11.577-12.835 15.388-.2994 6.8741-.2994 6.8741-11.374 6.3861-5.6007 2.0955-5.6008 2.0949h-59.925zm-.86419-120.66 5.3642-2.7867 6.5-9.6526v-14.098l-5.0469-8.6119-9.3487-6.4321-10.656-.88369-8.7233 3.3315-3.6109 3.5068-3.6109 3.5068-1.7097 3.2034-1.7097 3.2034-.0766 12 5.5374 9.4322 6.8254 5.206 5.63 1.6899 9.2716.172 5.3642-2.7867zm-15.733-13.72-2.5066-2.5066.30203-5.2434.30203-5.2434 12.323-.59084 3.177 4.5358v7.2064l-4.6289 4.3486h-6.462zm103.28-225.29-1.6287-1.7996-1.537-4.3564-1.537-4.3563.26067-.22109.26068-.22109 8.4203-4.2458h3.1706l4.9091 4.9091v5.9273l-1.2424 3.2375-5.6583 2.926h-3.7893zm80.319-18.98-10.5-12.655-28.199-33.066-35.28-42 .1224-2 15.792-13.978 1.8332-.61107 23.732 27.445 24.722 29.144 36.974 43.373 6.1028 2.1274h184.7v15l-209.5-.12452zm24.457-34.407-12.957-15.187-40.729-48.127-13.951-16.459.34023-.87805.34024-.87806 12-10.48 5.2983-3.7979 49.467 58.493 5.2344 6.2912 23.978 29.209 139.02.23627 27 1.2637.29206 7.75.29207 7.75h-182.67zm25.815-31.626-11.772-13.813-21-25.05-29-34.517-.27548-1.1551-.27549-1.1551 14.327-10.997 12.224-10.158 37.721-30.342h2.4937l13.947 15.5 27.672 32 .83246 1 213.15 1 5.8741 14 5.3056 5.7661 26 12.477 22.481 10.609-.66299.66299-14.818 2.0087-30 3.871-25 4.2693-12 5.5014-29 18.03-23.145 14.305h-173.31zm44.026-6.4123 2.7978-1.0568 11.93-13.218h79.618l11.365 12.276 7.26 3.4451 11.395-.82426 9.4123-5.8967 6.3381-9.8196-.0632-6.9055-.0632-6.9055-5.8504-8.3694-9.4916-6.3857-8.5873-1.2878-8.7303 2.3508-12.207 12.823h-80.713l-9.4233-8.8144-8.7841-4.6054-19.561-.30816-1.1856-1.1856-.34-26.883-2.7869-4.0215-2.7869-4.0215-7.3393-5.0581-8.936-1.9879-9.65 2.0696-8.2617 6.3158-2.403 4.5-2.4031 4.5.71262 13.384 6.1994 8.6156 10.793 5.5874 13.948 1.9283 3.3791 4.0566 3.3268 11.428 1.963 13 4.7986 7 6.7341 4.5534 8.7984 1.6485 6-.8706 2.7978-1.0568zm-13.562-14.025-1.6461-1.25-.89075-2.5-.89074-2.5.8135-3.0154.81351-3.0154 5.9754-3.5297 5.1589 1.2948 2.9302 5.6663v5.1902l-4.9091 4.9091h-5.7086zm127.01-1.4785-3.75-.39226v-8.6577l3.5789-4.4198 9.2714-1.045 3.1497 10.606v4.637l-8.5-.33621zm-165.99-42.45-1.7365-1.3212-1.2117-6.1737 4.9256-5.7263h7.0723l3.1806 2.6396 2.9995 10.1-.24661.2313-.2466.23131-13 1.3396zm48.237-47.431-13.5-15.533-9.4493-12.357-.0253-.89233-.0253-.89232 22.082 1.3973 6.4183-3.9912 8.9164-9.1214h26.255l30.198 35.5 6.0178 6.5h131.85l4.9751 13.958-.52104.52104-.5211.52104-199.17-.0759zm87.275-17.364-3.225-.76431-2.4382-1.5976-2.4382-1.5976-9.6737-11.438-7.7547-8.6296h169.42l-.33334.78838-.33333.78838-17 22.313-120.34.1102-1.3318.39573-1.3318.39572-3.225-.7643zm-99.644-27.564-3.7924-4.5369 6.3697-9.9263 3.2915.0074 6.3724 3.8855 2.2664 4.2349-2.5309 3.3722-7.0138 7.5h-1.1706l-3.7924-4.5369z" fill="#698c50"/><path d="m552.26 700.34-1.2351-.49943 1.4883-2.878 1.4883-2.878 2.873-8.2936 2.873-8.2936 5.3782-16.628-13.274-14.831.96706-1.5408 15.434-6 2.8125-7 3.9293-8.2191v-1.3027l3.8486-8.4782 5.2832-13 1.624-5.1355-3.8613-7.8645-12.624-28-3.5828-8.3361-7.1874-2.0294-30.514-8.0675-9.4861-1.2311-19 14.577-20 15.842-.7146 2.6225-.71459 2.6225-4.9957 21-2.4301 10.5-2.4301 10.5-4.3136 19.304-16.401-.92428-4.2468-.85439-1.0541-2.7627-1.0541-2.7627-5.1227-19-2.0193-9.4492-5.1886-15.551-6.3143-11.987-51.995-53.013-22.899-23.5h-66.56l-2.8379 4.5-1.4466 5-3.5309 8-4.2383 10.5-4.2383 10.5-5.3139 13 25.191 45 2.8748 5 2.8748 5 3.4601 7-1.6948.61781-14.744-5.2343-6.9025-6.4682-33-40.491-2.2826-4.4335-2.2826-4.4335-1.4079-6.2788-1.4079-6.2788-5.3051-24-3.0611-12-1.4671-7-1.467-7 .033-22 3.0887-17 4.0384-24 2.943-15 2.1965-16 1.3376-7 1.3376-7 .62401-5.1473.62401-5.1473-13.531-10.705-3.7767-3-14.601-12.613-8.6326 2.2128-14.5 4.1913.01.60432.01.60433 6.9806 8.7815v1.4086l-1.9771 1.7892-1.9771 1.7892-13.546 9.6049-19 11.573-14 3.5245-30 3.9776-22 3.0123-5.8013.039 1.1865-20.952 4.0321-9.1151 20.583-21.147 8.1574-5.6459 11.843-4.2223 7-2.0344 25.389-8.0084-.98906-2.3746-10.78-7.5h-1.2947l-15.325 10.063-13.216 3.9373h-1.2844v-2.276l17.077-25.45 11.354-11.63 84.069-41.355 19.534-9.2899h1.6884l-2.5628 15.5-3.1601 14.631v3.406l31.5 17.226 14.697 7.737 7.5722 6.4584 10.731 16.459 16.841 25.082 7.3839 11 6.1148 12.126 3.3392 11.874 2.4104 9.75 2.4099 9.75 2.4355 9.75 2.4355 9.75 4.3111 17.527 4.3178 2.2941 17.74 11.649 1.6145-.9978 1.9579-6.4721 10.321-33 3.7119-12 2.1092-7.877 2.1092-7.877-2.7946-4.246-19.769-25.488-18-23.093-4-5.7451-11.93-15.673-10.07-10.765-20-16.385-34.304-24.41-2.3013-2.7729 3.6053-1.1159 18-2.0358 18.25-.016 6.112-1.2224 45.638-38.198 216.41-180.44 47.956-3.1381 176.64.001105 199.86 1.3313-9.8573 3.4778-36 11.347-11 3.7017-36 11.382-19 6.0324-42 13.945-14 3.735-227.08.047072-8.606-8.7689-10.875-5.5021-10.154 1.2026-9.6714 6.2061-5.1103 10.255v14.528l-2.5 2.1147-26.056 21.464-27.944 23.167-29 23.571-85.321 70.961-4.3581 19.302-5.888 25-.35606 1.6853-.35607 1.6853 1.596 2.3147 1.596 2.3147 12.154 15 8.6489 11.701-.67351 7.1874-.67351 7.1874 4.2398 11.332 8.3473 6.1387 8.0231 2.1604 8.5271-1.1688 7.4936-3.8427 4.3083-4.6946 3.1917-7.7442v-9.3995l-3.1018-9.1033-4.3982-4.0678-8.9218-4.607-16.056-.25639-9.0217-11.06-10.321-13.348 3.5821-13.414 5.658-23.703 7.9805-6.831 1.4466.53359 38.654 46.212 25.929 30.788 10.852 13 13.069 14.629 6.1504 3.3706 224.3.5497 22.922 27.45 11.223 12 .0592 2.5h-136.04l-11.46 4.7562-19 11.102-29.479 16.568-3.8196 12.074-6.399 21-4.5452 12.931-9.7574 2.6775-18 4.7745-17 4.8988-18 5.1626-8.8968 2.7456-.60224 1.8097 15.499 8.7805 13 6.9723 37 21.129 10 6.9113 18.844 15.207 18.156 16.114 19.103 15.886 12.897 9.6422 29 20.988 13.37 8.8269 14.63 4.0744 32 3.0592 12 3.0439 13 6.2213 42 23.307 6.7984 2.337h26.368l1.2468-1.2468-5.4135-7.1125-6-7.0246-16.108-18.116-1.4305-2.3715 5.5386 1.7735 16.484 5.1521 16.516 5.1853 16 4.7097 18 5.213 18 4.9713 11.471 3.1053-.47581.76986-.4758.76987-5.5189 1.3758-6 2.8124-9 2.93-17 6.2421-14 4.9621-14 4.656-29 10.409-7-2.397-14-6.0043-8-3.5433-13.487-5.2533-12.513-4.7739-7.9645-2.5027-50.036 1.7896-32 .014-24-5.7553-27-6.945-18.194-4.4868-2.3061-1.4253-1.939 1.1984 6.8167 9.4884-2.9973 18.931-.71457 3.4443-.71457 3.4443-9.9513 5.9258-15.897 4.6856-7.1027-.1578-1.2352-.49944zm-125.72-199.22 4.0414-1.8357 4.9522-5.8853 4.9377-10.4 7.0274-2.335 18-4.6853 37-9.8081 12-3.2316 8-2.7493 5.4517-1.2158 3.2186-11.474 8.9756-27 3.6723-3 11.38-7 4.7933-8.1619.60712-4.4294.60711-4.4294-2.3156-8.5995-9.3906-9.6624-11.5-3.5826-11.5 3.6089-9.2892 9.2598-2.3842 8.8543.65303 4.3548.65304 4.3548 9.1133 13.311-3.4507 11.121-2.745 6-3.1214 9-1.1372 2.5888-1.1372 2.5888-9.1545 2.5506-15 3.7398-18 4.8484-23 6.3488-12 2.7045-9-5.69-7.7442-3.1797h-7.8354l-8.4203 4.2784-5.361 5.2216-2.0695 4.8329-2.0695 4.8329v7.6158l3.5172 7.8559 5.4076 6.4266 8.5752 3.8919h11zm-15.832-14.745-.70896-.70896v-12.667h12.877l.65134 4.3434.65134 4.3434-.34006 2.4066-.34007 2.4066-12.082.58459zm124.54-84.064-2.2522-.45179-1.7317-3.3603-.5138-4.7914-.5138-4.7914 14.264.58285.29398 4.5.29397 4.5-1.294 1.6953-1.294 1.6953-5 .87337zm-418.7 296.77-5.9507-.58189 19.099-15.5 8.802-.0396 13.591-1.9651 12.409-6.3367 18.128-12.497 18.872-16.869 1.6934-1.9124 1.6934-1.9124 1.0545-4.7052 1.0545-4.7052 4.7587-12.557 20.336-41 4.1435-4 .94608 2.5406 31.571 39.459 4.4219 2.6248 18.327 2.9391 26 4.5847-9 4.2435-11 3.8018-26 9.3586-6 2.7112-8 2.4968-2 1.4787-8 2.5582-20.045 9.359-3.591 5.4805-14.364 15.179-18 14.358-2.1843 1.1627-2.1843 1.1627-64.631-.33622zm228.65.005-5.2959-.587 15.372-15.5h9.6624l10.557-4.7799 6-5.8602 12.425-14.135-1.9645-12.199-1.7841-4.6926-9.6765-7.9618-17-11.976-5.8105-3.6459-14.202-4.5074-11.988-2.4022-19-5.8107-6.0952-3.7546-10.305-15.189-8.2429-14.587-4.1621-7-8.6944-14.753v-2.505l4.7094-10.742 5.0001-12 4.7905-11.466 54.222-.0342 61.979 63.5 5.9188 7 4.0814 7.1084 11.182 32.892 3.3483 12 4.7404 22 .0254 3-11.998 14.679-.0306 12.321-.73468 1.109-.73469 1.109-16.342 8.4963-14.658 1.6979-40-.23817-5.2959-.58701zm-8.8494-119.17 3.8547-1.0703 8.6885-8.0088 2.3878-7.2351v-10.208l-2.3973-7.2638-7.769-7.0188-6.0202-3.1131h-11.164l-6.8944 2.8807-8.7833 9.0374-1.129 4.4838-1.129 4.4838.012 4.6144 2.1219 7.6416 7.3669 8.171 8 3.6435 9 .0328 3.8547-1.0703zm-11.355-14.213-2.5-1.2648v-12.941l10-.58675 3.6327 2.6569.55514 4.1389.55515 4.1389-5.152 5.152-4.5909-.0294-2.5-1.2648zm154.45 133.41-12.048-.6141 17.618-15.5h17.589l6.3228-4.6648 10.231-9.5699-1.6934-1.6934-23.972-11.021-13.516-7.3972-1.0041-3.729-1.0041-3.729 2.0191-9.8481 2.0191-9.8481 5.7215-21 5.4897-20 .488-2.1664.48799-2.1664 18.107-14.636 9.1921-6.6036 9.297 1.2325 19.703 6.0111 7.2788 2.1833 4.4861 11.146 9.0278 20.416-2.7153 8.2157-2.7153 8.2157-3.3598 7.0802-3.3598 7.0802-7.6424 4.6312-11 6.375-2.813 8.1222 12.947 16.864.72408 1.2206.72407 1.2206-1.5184 2.9362-1.5184 2.9362-4.1763 15.223 3.2507 10.464 1.0603 2.539-5.1797-2.36v-1.5442l-4.096-1.3-2.5532 2.1189-14.851 3.2266-31 .54796zm60.164-80.027 4.1161-1.8692 4.9848-6.7177 5.5609-10.427-4.5195-10.573-4.9726-8.5412-8.2858-4.7667-8.2748-1.3298-7.769 2.092-8.31 6.1112-5.1463 10.327v10.477l1.779 4.6302 8.6258 9.7667 6.0952 2.655 12 .0344 4.1161-1.8692zm-12.466-14.303-6.3502-2.1297.65138-4.0773.65138-4.0773 1.3976-1.3463 10.989-1.9696 1.511.93387v5.6028l-.63592 4.6396-.63593 4.6396-1.2282-.086-6.3502-2.1297zm-99.426-265.03-1.6586-1.25-3.0652-7.4358v-2.9706l9.0775-4.0154 4.702 2.1424 1.1103 2.4368 1.1103 2.4368v2.8118l-1.1103 2.4368-1.1103 2.4368-4.8736 2.2205h-2.5236zm83.18-15.495-7.3192-8.7546-1.1836-1-51.901-61.899-17.732-20.687 3.7322-4.1392 13.742-12.195 5.0286 5.9203 10.491 12 21.376 25 45.606 54 5.4168 5 188.93.53003-.2935 7.235-.29351 7.235-208.28.50923zm32.955-24.499-1.5374-1.2552-27.734-33-22.298-26-28.386-33.806 6.5421-6.7497 11.087-8.7101 18.967 22.102 59.517 71.163 148.48 1.1991 18.581 1.6061-.58146 14.195-181.1.51051zm17.606-41.005-6.854-8.25-3.4838-4-18.789-22-37.339-44.697.0926-1.3033 8.0046-6 24.795-20 18.523-15 13.577-10.5h1.4576l6.3436 7.1304 12.912 14.37 13.795 16.089 10 11.386 212.56.0252.58417 1.75.58418 1.75 5.8832 12.969 3.3857 3.7755 18 8.5412 18 8.3156 13.864 6.6601-12.864 1.349-10 1.8467-26 3.078-25.781 5.0588-6.2192 3.1397-26 16.049-7 4.371-8 5.0875-12.039 7.259h-175.14l-6.854-8.25zm41.533-11.571 3.4983-1.6793 8.9551-11.298 39.048-1.4721 41 1.3868 11.438 11.96 6.9978 2.9239 8.5642-.012 7.4983-2.0824 9.7693-9.7693 1.2244-5.104 1.2244-5.104-1.3161-8.7766-5.6461-8.4068-8.4068-5.6461-9.2972-1.3942-9.0503 2.3031-12.288 12.991h-80.806l-7.9059-8.1004-9-5.3196-20.819-.56579-.86051-.86051.1228-22.651-2.0273-7.5289-6.2358-7.1022-9.6136-4.8716h-7.9007l-9.6658 4.1286-2.8416 2.6857-2.8416 2.6857-1.9084 3.7102-1.9085 3.711v12.159l3.9123 7.6687 6.3275 5.3242 5.6028 2.8973 16.466 2.53 3.671 7.0823 4.1035 19.918 1.0554 3.5108 5.1 6.061 6.2618 3.2628 6 1.5351 9-1.0112zm-15.998-14.179-2-2v-7.6514l4.6289-4.3486h6.2259l4.1452 5.2697v3.8296l-1.46 2.8232-1.46 2.8232-4.5801 1.2269-1.75.0137-1.75.01361zm124-4.9442v-3.9442l2.2516-2.6176 2.2516-2.6176 8.1102-1.0878 3.3867 12.181v2.0302h-16zm-161.7-38.232-2.1991-1.0839-.61618-2.8054-.61617-2.8054 3.1586-4.8207 4.6094-2.1002 5.2742 1.0082 1.4461 2.2071 1.4461 2.2071 1.0153 3.6769 1.0152 3.6769-1.3344.76598-11 1.1573zm56.071-38.527-5.8721-6.7038-4.7174-5.0924-18.505-22-2.4439-4.6794 21.812 1.4137 5.8539-3.0758 11.321-10.159 24.679.116 9.6121 11.384 25.961 30.5h131.68l2.0408 2.5 3.2041 10.863v1.637h-198.76l-5.8721-6.7038zm74.612-28.149-3.4844-1.8527-16.772-19.795 84.272-.52171 84.065.52171-18.249 23.5h-126.35zm-94.827-25.476-4.3423-4.4352 2.833-4.3681 2.833-4.3681 1.9134-1.3619 7.1054 2.9403 3.4555 4.4217-.02 1-9.4363 10.607-4.3423-4.4353z" fill="#4b752d"/><path d="m483.6 699.09-15.905-.59434 10.447-9 7.3623-6.4984 18-.0216 15.5-13.077-.0115-1.2017-.0115-1.2017-7.477-3.4355-27.408-12.882-5.092-5.092.0351-5.2955.0351-5.2954 2.7516-12 5.0711-19 4.9626-18 3.0486-10.823 2.591-1.6013 6.8081-5.576 11.197-9.0854 5.4296-3.4146h6.1756l13.395 3.0515 16.958 5.8773 6.605 15.571 1.442 3 1.442 3 2.0167 4.8103 2.0167 4.8103-2.0505 6.1897-2.0505 6.1897-5.3797 13.845-7.6714 7.8269-9.3286 4.3413-4.0308 2.9873-2.4692 5.5941v3.736l4.047 4.6699 10.129 13.583-1.9701 2.4167-5.2056 15.15v5.7828l3.2887 8.6115-1.3096 1.3096-5.485-5.2549-7.9942 3.5593-12 2.2404-22 .78976-15.905-.59435zm52.304-78.555 5.3998-1.4371 6.4836-6.2842 3.7084-7.3178 1.657-2.5179 1.657-2.5178-6.3056-14.875-8-8.3644-11.244-2.4857-10.549 2.5306-7.5904 6.8574-4.1169 8.5043v11.433l1.415 3.3864 1.415 3.3865 8.2758 8.0314 8.3942 2.9735 4 .1342 5.3998-1.4371zm-8.6299-15.894-6.2301-2.1448-.0286-2 1.0043-3.6154 1.0043-3.6154 9.2594-1.2692 3.2209-.004-.329 7.5023-.32901 7.5023-1.342-.21034-6.2301-2.1448zm25.263 93.605.74687-1.75 3.2753-9 3.2753-9 5.4383-17.245-13.254-16.02 16.316-6.7353 4.9117-11 2.92-7 2.92-7 6.9008-17.414-.8789-2.293-.8789-2.293-8.9728-19-6.3823-15-3.257-6.3735-13.113-3.997-14-3.9953-16.678-3.1259-1.9102-1.1806-5.412 3.5113-23.006 18.161-11.556 8.7908-.62621 1.0132-.62621 1.0132-2.5831 11.183-2.5979 11-2.5979 11-4.822 22-2.6812 9.8648-12.904-.44859-6.5542-1.1489-2.2823-4.2646-4.7987-18.003-2.8934-13-5.3111-15-5.0368-9-3.8017-5-45.322-46.121-26.252-27.284-67.447-.29752-1.5602 1.7018-1.2511 4-1.2511 4-.87497 1.1088-.87497 1.1088-1.9155 5.3912-1.9155 5.3912-7.2427 17-4.916 12.157 11.5 20.53 4.2099 7.3128 19.191 33.932-.61904.61905-16.282-5.2517-12.669-14.299-18.088-22.155-11.117-14.388-4.1422-13.457-3.9768-20-5.1442-21-2.7838-14 .0266-21 2.7254-15 5.0737-29 3.1316-19 1.4182-8 1.4182-8 2.3824-16.673-2.7554-2.6759-29-24.251-5 .87796-17.863 4.722-.34333 1.0739-.34332 1.0739 7.0493 9.2322v.87969l-11.5 8.6872-15 10.09-11.148 6.2811-15.852 3.2075-32 3.9992-10 1.9146-12.792 1.3518 1.4517-21.672 4.6856-9.2466 21.887-21.873 5.7679-4.1877 19-6.22 24-7.3427 2-1.9226-4.5454-3.3269-7.2297-5.5h-2.6864l-15.251 10.245-10.973 2.8656-1.4597-.30543-1.4597-.30544 11.03-17 2.7875-3.9811 2.7875-3.9811 11.715-12.432 60.285-29.905 29-13.929 15-7.0883.30777 1.8185.30778 1.8185-5.2607 26.134.32257 2.1276.32258 2.1276 12 6.4592 14 7.5869 21.27 11.791 8.9396 9.5571 5.6756 8.8966 17.115 25.746 9.569 14.254 5.9894 12.408 4.1007 15.592 4.8881 20 3.7571 15 4.078 15.782.80887.73057.80887.73058 21.584 14.166 1.7957-4.4094 7.3263-24 1.8652-4.0016 1.9269-6.9992 1.9269-6.9992 2.4309-8.5 2.4309-8.5 2.1078-5.3532-14.288-18.647-17.674-23-10.757-14-12.035-16-7.6402-8.9487-12.732-12.051-21.495-16-4.4256-3-10.348-7.5057-1-.76209-1-.7621-10.759-7.8303 2.1112-.78099 2.1112-.78098 20.248-2.0778h20.099l7.0276-5.3602 9.3161-8.1398 7.5474-6 1.2962-1.2188 1.2962-1.2188 19.705-16.491 152-126.67 5.2296-4.3994 8.5852-7 15.365-13 7.5229-6 1.1489-1.0711 1.1489-1.0711 17-13.741 4-3.4894 5.4285-4.7908 38.571-2.3612 385 .11786-9 3.5147-10 2.6716-6 2.4827-21 6.4128-17.32 5.8247h-2.3772l-6.3023 2.7623-24 7.4546-19 5.975-4 1.5514-35 11.487-15.627 3.7697h-223.87l-7.8655-7.6332-8.4737-5.8668h-14.335l-8.6083 5.9661-5.2079 7.8697-.50601 8.8172-.506 8.8172-23 19.176-3.0106 2.3536-21.989 17.972-54 44.676-6.7023 5.352-2.2977 2.0522-22 17.834-5 4.5473-16 13.304-8.7821 7.2621-6.1636 5.5h-1.1176l-2.6528 8.9843-3.5716 17.516-5.317 22.674 5.6046 7.0721 12.724 16.254 5.5555 7.495-1.0452 16.753 2.3566 4.7187 2.3566 4.7187 6.4982 5.7055 7.5547 2.098h7l7.6416-2.1219 7.6193-6.8836 4.4491-10.342-1.3174-9.9311-3.8346-7.5164-7.4372-6.1304-10.646-2.21-10.151.53878-14.324-17.946-5.3005-7.0506.79959-1.4475.7996-1.4475 2.0535-9 2.0535-9 1.7971-7.5719 1.7971-7.5719 7.264-6.3561h1.9446l18.67 22.5 3.5583 4 19.633 23 21.866 26 23.809 28.584 7.6754 3.9157h223.72l5.8597 7.3842 11.736 14.116 11.264 12.881 5.6953 6.1189-136.7 1.0181-11 4.6486-3 2.5406-6 3.0254-18.708 10.767-9.2923 5.3404-8.401 4.3333-4.888 4.888-1.3625 7.4383-2.2908 7-2.2908 7-3.3494 10.5-3.3495 10.5-.14156.27424-.14157.27424-14.785 4.1601-14 3.6821-17 4.974-18 5.08-8.8968 2.7456-.61074 1.8322 3.9445 1.9775 54.563 30.692 14.192 8.3079 19.753 16 3.2539 3 3.8006 3.0565 22 19.02 20 16.02 7 4.8496 2 1.6374 20 14.593 16 10.983 14.681 4.4539 30.319 2.8839 15 3.2528 23.365 12.251 8.9201 5 16.715 9.3015 8.3683 4.3318 12.632 1.815 19.5-1.2489-.0318-2.1994-20.94-24-8.2403-9.5312 5.7124 2.2969 15.5 4.7344 16.5 5.113 17 5.118 17 4.8664 18 5.0346 13 3.6874-1 .23216-13 4.6399-40 14.57-14 4.6375-15 5.331-13.736 4.7063-21.264-8.8344-17-7.239-22-8.0837-57 1.7207-26-.20032-24-5.4667-23-6.0011-19-4.8682-6.4609-2.1058-.97622.60334-.97622.60333 6.2836 8.9147-3.5237 25.46-.4836.78249-.48361.78248-12.078 5.9925-11.59 3.0033h-10.425zm-126.22-196.61 3.2481-1.3572 5.9513-5.9513 5.4649-11.161 13.523-4.0818 12-3.24 18-4.7093 19-4.9818 18-4.8845 6.7342-2.8145 2.4135-7.981 2.4135-7.981 3.8625-12 1.9673-5.4949 1.9673-5.4949 13.642-8.2811 5.4017-7.3909.66268-4.4191.66269-4.4191-1.3259-8.8418-6.7613-8.8551-10.839-5.3031h-8.4104l-9.3903 4.2236-5.6919 5.73-3.9848 7.5464v10l3.8752 7.3315 6.4644 8.162-3.3388 10.507-2.6016 6-1.4571 5-4.5629 10.117-8.7024 2.2455-19 5.0183-17 4.192-4 1.855-17 4.1804-10.92 2.8093-6.0802-4.6176-10-4.553-9.295.02-6.705 3.7006-6.6532 6.0336-3.8468 8.3903v10.225l5.1989 9.3849 1.51 1.6996 1.51 1.6996 8.2812 4.0992 12.564.00158 3.2481-1.3571zm-15.646-15.31-.66667-.66666v-11.417l6.25-1.25h6.4917l1.3605 12.026-1.2202 1.9744h-11.549zm122.03-86.115-1.6973-1.8755v-9.3425h12.909l1.2931 6.8927-1.8588 5.6073-8.9491.59347zm-420.13 297 2.0636-1.7167 7.7312-6 3.1747-3 5.3966-3.5h13.707l10.863-3.1869 11-6.2093 13-8.8376 16.066-13.614 10.434-11.032v-3.2015l4.3003-13.418 21.629-44 3.5799-4.5003 17.991 23.146 5 6.2492 11.321 13.289 5.679 2.0716 14 2.3036 25 4.0416 1.9 1.9h-2.5977l-6.3023 2.9474-26 9.3361-11 3.7176-4 1.92-23.661 9.1171-15.339 7.067-6.4175 8.3949-10.583 11.155-20.781 17.345-79.219-.0666 2.0636-1.7167zm234.91-6.1738 7.9765-8.0429h10.671l10.629-5.0283 9.5628-10.472 7.7923-8.4241-.68748-6.288-.68748-6.288-1.3785-2.7235-1.3784-2.7235-12.476-10.104-2.9469-2.4486-16.053-10.762-11.858-3.903-16.142-3.6735-14.696-4.2226-8.6768-4.4386-2.9816-4.1283-2.9816-4.1283-10.879-17.743-7.6676-14-1.1177-1.0015-3.5-6.4985-3.2706-5.5366 5.2706-11.523v-1.0689l5-10.931v-1.0689l5.1104-11.172 54.193 1.4287 51.329 52.372 16.557 17.94 4.6081 9.0937 2.3826 8.9665 2.611 6 3.0572 10 3.0572 10 3.9989 14 3.105 17.814-12.509 15.113-.5 7.0366-.5 7.0366-17 9-65 .58586zm-7.6709-112.7 5.6277-2.8781 5.8549-9.4701.1256-13.72-4.9139-9.4962-8.5229-6.1572-12.033-.87035-8.9031 2.4927-8.9008 9.5156-1.1782 4.368-1.1782 4.368.55434 4.6962.55435 4.6962 3.1419 6.0758 6.7858 6.7858 8.6792 3.098 8.6779-.62653 5.6277-2.8781zm-14.306-12.501-2-1.1753-.73469-1.0855-.73468-1.0855-.0153-5.25-.01533-5.25h11.887l3.1134 4.445-.0333 2.5275-.0333 2.5275-3.7677 4.5168-5.6658 1.0047-2-1.1753zm101.74-226.84-2.1398-1.9935-2.0864-7.513-.012-1.3346 9.0589-3.4596 4.9813 2.2696 1.9631 5.1634-.61282 2.4417-.61283 2.4417-5.5864 3.9778h-2.8141l-2.1398-1.9935zm84.223-14.257-5.9389-7.25-22.085-26-1.9679-2.4003-1.9679-2.4003-1.5-1.6364-1.5-1.6364-15-17.847-27.5-32.883v-2.2329l13.202-11.963 3.8887-1.846 6.4096 7.8197 14.724 17.026 33.031 39 8.2455 9.7624 2.3561 2.6188 2.3561 2.6188 17.157 20.433 5.9295 2.067h184.76l.58182 1.5162.58181 1.5162-.68516 5.4838-.68515 5.4838h-208.46zm24.917-34-7.7589-9.25-3.1179-3.346-2.0417-2.327-2.0417-2.327-26.824-32-22.093-26-5.7794-6.4539-2.6313-3.7568 10.237-8.7893 6.614-5.6549 2.051 1.2676 20.426 24.387 23.233 27 17.746 22 3.4763 4 4.6277 5.3606 6.9703 8.8328 146.03 1.5297 21 1.2769.59138 13.5h-182.96zm3.1232-58.442-29-34.683-4.4197-5.1252-11.58-13.826 2.5924-.87112 37.408-30.115 6.0711-5.1879 7.7024-6 11.981-9.5h1.5784l.33334.93512.33333.93511 14.195 15.63 18.406 20.899 8.3989 10.506 213.36.0946 2.0556 5.4942 2.0556 5.4942 2.5239 3.9981 2.5239 3.9981 7.9461 5.0162 8.5385 3.3158 2 1.4363 30 13.579.76932.65346.76932.65347-26.539 3.4992-28.898 3.7887-19.102 4.3167-20.549 12.257-8.4514 5.4676-3 1.3579-5 3.4445-21.832 13.23-174.17-.008-29-34.683zm62 15.784 3-1.1209 12.154-13.256h78.054l13.792 13.784 8.4685 2.5h3.9565l10.888-4.0739 8.0607-8.7449 2.3401-8.6813-.62597-5.3361-.62598-5.3361-2.9312-5.6684-8.6596-7.0959-11.871-2.7007-9.8352 2.8482-11.7 12.289-81.465-.57273-5.0771-5.4273-7.0206-5.2949-7.9023-2.194-16.286-.012-1.214-3.1636v-21.35l-1.9606-6.8362-5.5394-5.9194-8.8916-5.7312h-11.233l-7.8757 3.8421-7.3809 7.6579-2.2914 6-.0139 5.5428-.0139 5.5428 1.4808 3.4572 1.4808 3.4572 3.1328 3.1425 3.1328 3.1425 6.838 3.2448 15.737 2.2256 4.2877 7.45 1.1022 6.8973 1.1022 6.8973 2.9899 10.177 7.4156 7.2044 6 2.3944 7 1.3477 5-1.4092 3-1.1209zm-14.045-15.547-2.4546-2.4545v-6.9547l5.8087-4.1362h3.3227l3.6582 1.9578 1.0951 3.1413 1.0951 3.1413-3.1136 6.5613-4.3662 1.171-2.5909.0274-2.4545-2.4546zm126.3-1.2617-2.75-.41659v-4.737l1.9873-5.2269 6.9485-2.9033h3.7881l2.1269 10.5.68159 1.75.68158 1.75-10.714-.29966zm-166.23-44.248-1.5791-3.0536 1.8754-3.5043 3.9982-3.6183 6.4893.64067 3.8712 5.2093.16326 3.3953.16325 3.3953-13.403.58916zm60.454-32.898-2.4727-2.8628-23.425-26.844-8.4006-11.731 9.8255 1.224 12.271 1.3092 10.729-8.0005 5.8742-6.2319h24.457l10.749 12.5 17.92 20.999 7.8121 8.4869 132.18.51417 4.3892 12 .1188 1.5h-199.55l-2.4727-2.8628zm73.527-30.613-3-1.3977-4.3088-3.6263-14.196-17.5h168.18l-4.6778 5.8473-14 18.109-125-.0346-3-1.3977zm-96.715-26.352-3.627-3.8276 3.0393-4.6724 3.0393-4.6724h4.6099l6.1534 5.1778v3.2465l-8.4164 8.5757h-1.1715z" fill="#366514"/><path d="m553 698.98v-1.0215l7-17.914v-2.0806l5-14.311v-3.9847l-4.8453-5.1667-7.4668-8.5879 1.8121-1.5469 14.461-5.6675.63879-2.0988.63879-2.0988 4.5761-10 4.0704-9.1384 1.4856-3.9308 1.4856-3.9308 2.2662-6.0925 2.2662-6.0925-2.5959-5.4075-2.5959-5.4075-5.0147-11-5.9275-13-2.7295-7.7019-5.0252-3.5089-15-3.4079-3.2196-1.7232-17.78-3.2993-3.4729-1.8588-4.5271.018-13 9.9639-4.4528 3.5182-5.3 4-5.6331 5-11.2 8-.44875 2-.44874 2-2.1981 9-4.9954 21-2.4727 11-2.4727 11-2.2541 10.734-10.123-1.2166-8.5294-.018-3.8396-6.3138-3.2357-15.186-.89556-2-.89555-2-1.1514-6-1.1514-6-1.3128-3-1.3127-3-1.6683-5.25-1.6683-5.25h-1.4375l-1.2601-3.4847-1.2601-3.4847-24.35-24.765-24.35-24.765-26.681-27.407-67-.34235-2.2832.24886-.68626 2.7343-.68627 2.7343-4.5688 10.031-1.5203 5-.70541 1-.70542 1-3.5598 10-3.4632 8-4.6305 10.43 3.2524 6.285 3.2524 6.285 5.3043 9.3879 11 19.342 4.4295 7.27 3.2697 7 1.2484 1.5 1.2484 1.5 1.2914 3.6308-1.7437-.4871-1.7437-.48711-11.38-3.1775-6.6748-6.4791-6.9454-8.8076-2.2082-2.5962-2.2082-2.5962-20.719-25-5.1754-9-1.9778-7.5-1.9778-7.5-1.2129-7-1.2129-7-2.7689-10-5.3315-22-.45151-10-.45152-10 2.0566-13 4.1181-24 1.4694-7 1.4694-7 1.0834-8 1.0835-8 2.7434-13 1.2897-10.876 1.2896-10.876-4.9075-3.7267-3-2.6362-15.901-12.885-3.3963-3-5.0611-4.5736-5.6416 1.3494-2 1.4666-15.461 3.3853-1.1861 1.9192 8.3664 9.9927-5.6094 4.4604-12.11 8.4986-3 2.018-10.94 6.9883-3.5598 1.1298v1.7218l-10.5 2.1543-11 2.1558-36 4.7644-11 1.9229-4.4163.146.62144-10.2.62144-10.2 1.3306-2.5496 1.3306-2.5496.0124-1.6845 4.1223-5.3155 16.378-16.807 10.289-7.7732 12.711-3.766 6-2.1157 24-7.3588.70836-.59774.70836-.59773-.70836-.99164-.70844-.99163-8-6.1754-4.157-2.2114-6.843 4.1385-1 1.3506-11 6.1283-10.792 2.311-.59468-.59468 17.387-25.835 11.034-11.25 68.966-34.137 4.5-1.3592v-1.8652h2.1739l24.443-11.744 2.3294-.73933 2.3294-.73932-.65856 2.8611-.65857 2.8611-4.3165 25.125 1.173 3.0568 23.685 13.071 22 11.534 8.1824 8.2136 6.8176 10.161 5 8.5693 3.5 3.7697v1.0977l8.5 12.402 1.0146 1 8.4443 13 1.0205 1.2078 1.0205 1.2078v1.2083l5.1573 10.902 3.9239 15.475 4.0074 18 1.7924 4 1.0745 5.5 1.0745 5.5 2.9204 10 2.083 8 9.4666 5.7931 13.147 8.7069h1.2114l3.2189-11.5 1.846-4 3.2338-12 2.6053-6 1.2499-5.5 1.2499-5.5 1.4649-2 3.5464-15 1.4958-2 1.3355-6.2526-1.3023-1.3737-1.3023-1.3737-8.995-12-1.005-1-6.1583-8-12.842-16.935-1.5-1.6878-1.5-1.6879-6.9873-9.6897-1.0178-1-8.995-11.992-1.3922-2.0079-12.727-15-22.127-18-14.439-10-3.4142-3-11.899-7.9281-5.5427-4.4787 3.9968-2.139 24.546-1.9088 15.563-.0454 23.437-19.318 4-3.7293 21-17.212 10-8.5756 31-25.681 14-11.695 9-7.6647 27-22.372 3-2.7751 27-22.225 3-2.7751 27-22.225 3-2.7751 27-22.225 3-2.7683 31.01-25.653 45.99-2.3432 376 .16958-3 1.0851-6 2.6541-13 3.2817-2 1.4909-14 3.615-2 1.4917-14 4.079-14 4.1191-4 1.9485-12 3.2007-4 1.722-27 8.3086-4 1.722-12 3.2007-4 1.875-21 6.9797-18.62 3.1956-217.64-.62722-10.05-9-3.1378-2.5294-5.1832-1.9706h-9.5714l-6.7673 2.3591-2.7196 2.1409-5.0768 5-2.6332 6.1926-.46665 7.9037-.46666 7.9037-10.668 9.2017-49 40.413-6.8171 5.385-4.5455 4-6.6374 5.3626-26 21.351-3 2.7607-19 15.591-20 16.589-9 7.633-14.911 12.351-2.5007 5.3606-4.0209 20-4.5669 20-.81323 1.2568-.81324 1.2568 4.4872 6.4864 2.5675 3 5.0924 6 11.979 15.887v18.811l3.273 6.8972 6.6388 6.2619 9.5882 3.6415 6.2458.00163 9.7542-4.2908 5.1175-5.2092 3.8433-6 .0392-14-3.8675-8.4606-7.4523-5.9888-8.6802-2.0017-13-.1108-7-9.291-1.0186-1.0736-1.0186-1.0736-9.2312-12.39 4.7159-20.61 3.8819-16.663.67063-.4939 7.7407-5.7644 3.923 4.921 5.3363 6.5893 5 5.6434 3.817 4.7673 16.185 19 9.8868 12 4.5105 5 12.592 15 2.0083 2.2977 6 7.5194 4 4.5695 7 8.5424 7.7425 8.5578 6.2575 3.8043 224.75.80526 5.2499 6.1228 6 7.6049 5 5.4141 10 11.66 8.7241 9.549-138.72.55306-7 3.7969-22 12.087-1 1.2492-25 13.671-4.3092 3.8654-.68626 3.6653-.68626 3.6653-4.584 14-3.3213 10.5-3.3213 10.5-1.3187 1.6269-14.773 3.925-17 4.7289-16 4.283-4 1.7806-6 1.218-14.5 4.3967v2.0598l4.4237 2.7626 8.0763 4.4015 10 5.5834 13 6.9505 5 3.2082 6 3.2842 9 5.0109 10 6.2163 7.583 4.1464 3.79 3.417 2.3135 1.7012 2.3135 1.7012 17 14.302 9.6572 8.2953 2.6405 2.4406 21.702 18.154 4 3.0192 16 11.816 1.063.90012 1.063.90012 4.2181 2.2574 2.656 2.5928 12 8.4284 4 3.1174 10.933 6.8745h3.4494l1.1251 1.8205 13.493 2.2306 21 1.8676 17.971 3.156 21.029 10.704 13 7.4706 8 4.417 13.314 7.2795 8.6863 3.0252 23-.1702 4.6046-1.3006-7.8227-10.483-12.782-14.332-7.4623-8.0555.70676-.70676 13.756 4.0218 16 4.9945 17 5.3357 17 4.6615 18 5.2346 17 4.5683-5.6302 2.2615h-2.2384l-8.1314 3.7978-11 3.4668-2 1.3852-9 2.5395-6 2.6203-25 8.267-1.6176.88753-1.6176.88752-8.7647 2.3441-9 4.1509-10 .1024-13.417-6.449h-3.0834v-1.6049l-10.5-3.6914-2-1.4391-11-3.5293-2-1.4707-11-3.4074-4.2334-2.0524-37.767 1.3777-47 .26867-22-5.3312-20-5.0415-20-5.2709-8.497-2.1438-1.3609 1.3609 4.0328 5.4754 2.4337 4.5712-1.6496 11.208-1.6496 11.208-.98714 1.8445-.98714 1.8445-14.335 6.7926-10.773 2.0304h-6.727v-1.0215zm-122.39-199.67 4.0286-3.1924 6.5832-12.97 10.275-2.4092 2-1.2111 18-4.6581 16.75-3.9304 3.2501-1.6762 16-3.4784 2-1.4516 12-2.5704 7.2645-3.1298 2.4582-11.13 1.5986-2 3.3576-13 1.5798-2 3.2041-11.179 8.0373-3.6243v-1.4536l5.7164-2.3678 4.4073-5.9612 1.0906-5.2068 1.0906-5.2068-.70233-4.6737-.70234-4.6737-5.7051-8.4947-10.695-5.6574-10.61-.00046-8.3903 3.8468-6.1398 6.6532-1.8604 2.9899-1.8604 2.9899-.0804 12.02 2.8688 4.5 2.8688 4.5 4.5899 5.5187-3.0907 10.481-1.5353 2-2.5126 8-3.4533 8-1.232 3.5h-3.6269l-10.936 3.0441-18 4.8083-19 5.2612-16.75 3.9497-3.2501 1.733-5.1001.6633-5.7248-4.5032-4.675-1.1734v-1.5837l-9.5923-2.3012-8.1562 1.8326-8.7979 6.0531-2.9504 5.716-1.9593 1.3999-.37299 7.3862-.37298 7.3862 6.1273 10.828 4.5748 2.8547 5 2.7338 17.085-.58847 4.0286-3.1924zm-19.364-12.947-1.25-.52727v-11.833h13.095l-.29771 6.25-.29772 6.25-10 .38786zm121.4-86.775-1.648-2.5151v-8.0704h12.777l.65921 3.5139.6592 3.5139-1.3054 2.7361-1.3054 2.7361-8.1892.60054zm-420.65 299.01v-.40317l18.5-15.006 20-.82184 11-5.332 7.1724-4.5333 8.2358-5.4672 16.485-13.309 11.803-11.55 4.9657-17.632 19.014-39.042 3.0717-5.1648 3.0717-5.1648 8.5818 11.33 3.5989 4.7285 4.4729 5.2715 6.1903 8 6.3368 7.821 6.4044 6.6169 5.5956 1.1087 9 1.9419 21 2.9928 8.5671 2.2975-11.567 4.7166-7 2.2409-6 2.5718-9 3.0742-16 5.9217-12 4.4605-1 .7375-1 .73749-7.9896 2.5773-16.152 7.4269-7.1824 9.7564-16.676 16.049-7 5.3422-7.775 6.109h-76.725zm233.74-5.2934 5.0332-5.8034 3.7241-3.2331 13.518-1.1934 8.9383-5.2382 17.329-18.878-1.1748-12.458-3.1029-6.1913-16.988-13.309h-1.0194l-3.5-3.1817-10.527-6.5567-8.4735-3.0184-30.874-7.5252-10.694-4.896-7.6234-10.322-3.3805-6-5.8217-9-2.0281-4-2.0281-4-.95979-1.5-.95978-1.5-7.5288-13-2.7385-3.3089 3.8987-8.6911 1.4466-5 2.4885-4 2.5612-8 2.7284-5 1.0017-2.8014 1.0017-2.8014 53.51 1.2854 44 44.371 22 23.261 2.5506 3.1558 5.7668 12.53 2.3782 9 1.6256 2 3.3576 13 1.6033 2 3.4755 16 .72225 1 .72224 1 1.149 7.1926 1.149 7.1926v5.4596l-9.6791 11.155-1.1604 2.1843-1.1604 2.1843v11.65l-4.5 2.8654-14 7.1157-62.79.60681zm-10.979-112.22 1.7364-.91658 6.7046-2.4942 5.8262-6.1726 4.1444-13.804-1.0294-2.098-1.0294-2.098-.59834-3.0708-.59833-3.0708-6.2783-7.6167-8.1415-3.6978-12.564-.044-6.7605 2.8247-7.8332 7.8332-3.3421 10.218v6.0062l.87084.5382.87084.53821.58777 2.9389.58778 2.9389 6.4673 7.3659 9.1155 4.5867 9.5271.21132 1.7364-.91659zm-10.564-16.283-1.2-1.2v-11.6l9.5.0306 1 .73468 1 .73469 2.5 4.4729v3.0119l-4.3607 5.0152h-7.2393l-1.2-1.2zm145.5 132.88.79969-1.3224 15.416-13.355 18.584-.0282 9-8.1792 7-5.8943-4-3.1118-7-3.0022-12.417-5.7844h-.8677l-16.206-9.1137-.67152-2.6755-.67151-2.6755 1.2066-8.345 1.2066-8.345 1.8277-3.3453 4.0025-17 4.9385-18 1.5228-5.392 1.5228-5.392 8.1603-7.216 9.1513-7 1.1472-1.0374 1.1472-1.0374 7.2758-4.4497 14.493 2.0555 17.231 5.8414 3.6604.6277 3.4523 8.5 3.4523 8.5 5.3793 11-.1504 9-3.6924 9.3449-3.6924 9.3449-4.4551 7.0393-16.906 9.3113-3.4551 9.3055 11.601 14.713 2.2534 4.2105-4.209 12.731-1.7379 1.9v11.699l1.5737 3.0433 1.5737 3.0433-1.2178 1.2178-5.0106-5.4037h-.75325l-8.6658 3.7109-13.164 2.2891h-50.436l.79969-1.3224zm66.3-76.553v-.875l5.9836-1.1967 6.9091-7.1144 1.2546-3.4694 1.2546-3.4694h1.2772l1.1915-2.615 1.1915-2.615-7.8772-16.27-4.9509-5.1605-6.7339-2.5064-1.7364-.91658-1.7364-.91659h-5.0543l-1.7364.91659-1.7364.91658-6.6328 2.4645-7.8727 8.2023-.99165 3.5-.99166 3.5-.012 11.698 3.0772 6.4848 6.4228 6.1379 7 4.0377 6.25.0709 6.25.071v-.875zm-9.5-17.166-5-1.7742.1696-1.6843.80738-3.336.80739-3.336 1.1078-.32911 1.1078-.3291 9.5-1.1316v10.798l-1.214 3.1636-2.286-.26735-5-1.7742zm-98.14-264.42-2.0847-1.4602-2.4396-5.8898.332-2.345.33199-2.3449 7.556-1.8664 5.444 1.9043.30019 4.6184.3002 4.6184-6.8365 4.2252h-.81892zm85.924-12.29-4.0826-4.75-11.871-14-1.9157-2.3836-1.9157-2.3836-5-5.4354-7.2905-8.7973-19.386-23-7.3235-8.764-5.4021-6.236-12.108-14.594-3.9904-4.2832.0636-1.1229 1.2182-1.5044 1.2182-1.5044 13.574-11.801 6.4256 7.0166 11.111 12.793 16.74 20 3.1488 3.2136 4.8271 5.7864 5.1729 6.1359 8.351 9.8641 28.707 34 5.9425 3 185.5.6046v12.895h-207.63l-4.0826-4.75zm27.615-30.469-2.3996-3.219-4.0667-4.0621-9.1291-11-22.868-27-3.9358-4.749-7.2011-8.251-12.799-15.019-9.8498-11.981-4.6502-4.5809.0306-1.4191.73468-1.0135.73469-1.0135 14.889-12.711 3.8215 4.7375 8.2892 9.8036 3 3.2826 11.641 13.914 4.5075 5 35.718 43 12.072 14.5 113.06.004 52.5 1.3169v13.679h-181.7l-2.3996-3.219zm23-34.906-4.3998-5.1254-8-9.3699-8-9.6276-5-6.0066-4.7365-5.245-7.2635-8.9973-2-2.2252-6-7.4019-1.7293-1.9171-1.7293-1.9171-20.758-24.651 17.72-13.891 4.7378-4 3.7588-3.0408 36-28.803 3.0666-2.5738 18.933 21.171 4.1995 4.2471 10.594 13 5.9189 6 3.0177 4.5h212.53l1.9842 2.5 1.2447 4 1.2447 4 2.9736 4.7246 2.9736 4.7246 24.324 11.843 11.376 5.2077h2.1238v1.6049l10.008 3.5988.45697.73939.45696.73939-26.422 3.1623-34 4.9002-15.944 4.0856-.36156 1.0847-.36157 1.0847h-1.8945l-13.962 8.5-8.4772 5.4323-7.9386 4.3321-5.0614 3.4227-8 5.0126-9.8429 6.3002h-173.36zm37.947-13.914 4.0234-1.9439 8.3732-10.721 36.257-1.6814 8-.0214 36.468 1.6989 9.5541 10.431 8.8536 4.2776h8.6515l3.4729-1.7144 7-3.6688 6.2209-6.9487 1.7069-5.6983 1.7069-5.6983-1.6805-5.7808-1.6805-5.7808-7.9343-8.6077-7.3394-2.3437-1.9-1.7584h-7.2257l-10.18 4.9112-8.507 10.089h-81.406l-6.7809-7.1003-8.7944-5.2623-10.853-.44715-10.853-.44721-.21414-9.2431.19694-7.2892.19695-7.2892-.95199-1.2108-.95199-1.2108-.64489-2.702-.64489-2.702-6.486-6.8002-7.8346-4.6657-12.521.1178-7.644 4.6182-6.073 6.1339-2.8859 7v11l1.4274 3.5 1.4274 3.5 6.0442 6.5h2.5599v1.7626l8.5 2.1102 12.008 1.3298 4.5962 9.2974 2.7792 17.373 1.6974 3.3133 1.6974 3.3133 4.2221 4.2221 7 3.7774 5 1.3375 8.3231-.93304 4.0234-1.9439zm-15.296-15.319-2.5503-2.5503v-6.013l4.3771-4.0779h6.48l3.1429 3.1429v6.6356l-3.5 4.1363-5.3994 1.2768zm130.58-1.4375-7.3733-.2963.58059-3.5777.58058-3.5777 3.1177-3.445 8.1625-2.4455.25616.31931.25615.31931 2.4319 12.694-.6389.30556zm-168.63-41.969-1-.73469-2.3578-4.2451 4.9298-7.2549h6.7648l3.9351 6.5 1.4421 4.7497-2.714 1.7197h-10zm55.41-39.485-6.2961-7.25-2.1739-2-12.731-15-1.3773-1.5-1.3773-1.5-5.954-7.775v-.78811l20.97 1.3558 8.5298-5.7252 8.6977-8.5675 23.302.0782 32 37.37 2.6731 2.7761 2.6731 2.7761h131.01l3.0936 6.2013 1.2754 6.7987h-198.02l-6.2961-7.25zm78.09-25.474-1.5-.56634-7.3827-5.7846-13.3-16.076.43038-.43038.43038-.43037 165.52.51162-9.2296 12-4.4719 5.7359-2.3389 2.882-2.3389 2.882-124.32-.15789zm-96.083-25.526-1.4649-1.25-1.767-2.1238-1.767-2.1238 2.2461-3.8762 2.2461-3.8762 1.8572-1.2836 6.2322 1.756 3.5 4.2491v1.5373l-7.9978 8.2412h-1.62z" fill="#255800"/></g></svg>
